<?xml version="1.0" encoding="UTF-8"?>
<svg id="Layer_2" xmlns="http://www.w3.org/2000/svg" viewBox="0 0 486.83 467.97">
  <defs>
    <style>
      .cls-1 {
        fill: #fff;
      }

      .cls-2 {
        fill: #ea4168;
      }
    </style>
  </defs>
  <g id="Layer_1-2" data-name="Layer_1">
    <g>
      <path class="cls-2" d="M247.28,467.97c49.38-23.96,98.17-65.54,92.51-126.05,42.62-3.9,56.41-6.07,99.44-16.09,16.84-9.95,32.61-22.43,47.08-35.2,1.28-2.61-.19-2.5-.17-2.63,2.39-16.58-22.65-82.75-50.06-105.93-17.89-15.13-37.09-19.72-37.2-21.88,39.46-45.38,24.57-106.4.4-154.96-55.72-11.31-124.47-7.78-155.86,46.64C211.71-3.42,147.6-3.7,91.84,4.71c-17.11,34.34-32.39,82.35-20.49,120.09,4.24,13.44,13.48,24.28,18.87,37.05C33.59,174.61,11.21,232.4,0,284c-.3,9.22,27.42,28.83,48.53,41.67,25.43,5.52,94.45,23.04,103.74,14.53-5.86,54.42,44.69,105.76,95.01,127.76Z"/>
      <path class="cls-1" d="M48.78,325.83s63.54,44.54,118.84,6.6c-50.71,0-50.71-6.6-50.71-6.6H48.78Z"/>
      <path class="cls-1" d="M439.23,325.83s-64.45,44.54-119.75,6.6c50.71,0,50.71-6.6,50.71-6.6h69.04Z"/>
      <g>
        <polygon class="cls-1" points="329.56 134.12 246.8 94.94 246.8 86.92 243.5 83.62 240.2 86.92 240.2 94.94 157.44 134.12 243.5 134.12 329.56 134.12"/>
        <path class="cls-1" d="M368.52,157.19c-15.46-13.28-37.44-16.33-37.44-16.33h-175.16s-21.99,3.05-37.44,16.33h250.05Z"/>
        <path class="cls-1" d="M325.38,234.6c-.04-.06-.08-.11-.12-.17-.17-.24-.34-.47-.52-.71-.04-.05-.08-.11-.12-.17-.19-.25-.39-.5-.59-.76-.02-.03-.05-.06-.07-.09-.13-.16-.27-.33-.41-.49-.03-.03-.05-.06-.08-.1-.32-.37-.65-.75-1-1.12-.01-.01-.03-.03-.04-.04-1.04-1.11-2.23-2.24-3.58-3.37-.2-.17-.4-.33-.61-.5-.06-.05-.12-.09-.17-.14-1.09-.87-2.28-1.73-3.58-2.58-.24-.16-.48-.31-.73-.47-2.77-1.76-6.01-3.48-9.82-5.1-1.3.55-2.53,1.12-3.7,1.69-23.75,11.62-22.09,27.05-22.09,27.05v30.98c-.06.52,0,.82,0,.82v41.99h10.35v-42.11c0-1.23.64-2.34,1.65-3.33,0,0,.02-.02.03-.03.93-.9,2.18-1.69,3.54-2.39.12-.06.24-.12.36-.18.22-.11.44-.21.66-.31.02,0,.04-.02.07-.03.44-.2.88-.39,1.33-.56.05-.02.1-.04.15-.06.19-.07.37-.15.56-.21.18-.07.37-.14.55-.2.29-.1.57-.2.85-.3.2-.07.39-.13.58-.19.48-.16.95-.3,1.39-.43.09-.03.17-.05.26-.08.32-.09.62-.18.91-.25.09-.02.17-.05.25-.07.18-.05.35-.09.52-.13.08-.02.16-.04.23-.06.95-.24,1.54-.35,1.54-.35,0,0,15.43,3.1,15.43,9.17v42.11h10.35v-41.99s.06-.3,0-.82v-30.98s.62-5.78-4.35-12.93ZM319.02,268.07c-.11-.05-.23-.11-.34-.16,0,0-.01,0-.02,0-.11-.05-.23-.11-.34-.16,0,0-.02,0-.03-.01-.11-.05-.22-.1-.34-.15-.01,0-.03-.01-.04-.02-.11-.05-.22-.1-.33-.15-.02,0-.03-.02-.05-.02-.11-.05-.22-.1-.33-.14-.02,0-.04-.02-.06-.03-.11-.05-.22-.09-.33-.14-.02-.01-.05-.02-.07-.03-.11-.05-.22-.09-.33-.14-.03-.01-.06-.02-.08-.03-.11-.04-.22-.09-.33-.13-.03-.01-.06-.03-.09-.04-.11-.04-.22-.09-.33-.13-.03-.01-.07-.03-.1-.04-.11-.04-.21-.08-.32-.13-.04-.01-.08-.03-.12-.04-.11-.04-.21-.08-.32-.12-.04-.02-.08-.03-.12-.05-.11-.04-.21-.08-.32-.12-.05-.02-.09-.03-.14-.05-.11-.04-.21-.08-.32-.12-.05-.02-.1-.04-.15-.05-.11-.04-.21-.08-.32-.11-.05-.02-.11-.04-.16-.06-.1-.04-.21-.07-.31-.11-.06-.02-.11-.04-.17-.06-.1-.04-.21-.07-.31-.11-.06-.02-.12-.04-.18-.06-.1-.03-.21-.07-.31-.1-.06-.02-.13-.04-.19-.06-.1-.03-.21-.07-.31-.1-.07-.02-.14-.04-.21-.07-.1-.03-.2-.07-.31-.1-.07-.02-.14-.05-.22-.07-.1-.03-.2-.06-.31-.1-.07-.02-.15-.05-.23-.07-.1-.03-.2-.06-.3-.09-.08-.02-.16-.05-.24-.07-.1-.03-.2-.06-.3-.09-.08-.02-.17-.05-.25-.07-.1-.03-.2-.06-.3-.09-.09-.03-.18-.05-.27-.08-.1-.03-.19-.06-.29-.08-.1-.03-.2-.06-.29-.08-.09-.03-.18-.05-.28-.08-.1-.03-.21-.06-.31-.09-.09-.02-.18-.05-.27-.07-.11-.03-.23-.06-.35-.09-.08-.02-.16-.04-.25-.07-.13-.03-.26-.07-.4-.1-.07-.02-.14-.04-.21-.05-.15-.04-.3-.08-.46-.12-.05-.01-.1-.03-.16-.04-.19-.05-.39-.1-.58-.15-.01,0-.03,0-.04-.01-.21-.05-.43-.1-.64-.16-.21.05-.43.1-.64.16-.03,0-.06.01-.09.02-.18.04-.36.09-.53.13-.06.02-.12.03-.18.05-.15.04-.29.07-.44.11-.08.02-.15.04-.22.06-.13.03-.25.07-.38.1-.09.02-.17.05-.26.07-.11.03-.22.06-.33.09-.09.03-.18.05-.28.08-.1.03-.2.06-.31.08-.1.03-.19.05-.28.08-.1.03-.19.05-.29.08-.1.03-.2.06-.29.08-.09.03-.18.05-.27.08-.1.03-.2.06-.3.09-.08.02-.17.05-.25.07-.1.03-.2.06-.3.09-.08.02-.16.05-.24.07-.1.03-.2.06-.31.09-.07.02-.15.05-.22.07-.1.03-.21.06-.31.1-.07.02-.14.05-.22.07-.1.03-.2.07-.31.1-.07.02-.14.04-.21.07-.1.03-.21.07-.31.1-.06.02-.13.04-.19.06-.11.03-.21.07-.31.11-.06.02-.12.04-.18.06-.11.04-.21.07-.32.11-.06.02-.11.04-.17.06-.11.04-.21.07-.32.11-.05.02-.11.04-.16.06-.11.04-.21.08-.32.11-.05.02-.1.04-.15.05-.11.04-.21.08-.32.12-.05.02-.09.03-.14.05-.11.04-.22.08-.32.12-.04.02-.08.03-.12.05-.11.04-.22.08-.32.12-.04.01-.08.03-.11.04-.11.04-.22.08-.32.13-.03.01-.07.03-.1.04-.11.04-.22.09-.33.13-.03.01-.06.02-.09.04-.11.04-.22.09-.33.13-.03.01-.05.02-.08.03-.11.05-.22.09-.33.14-.02,0-.05.02-.07.03-.11.05-.22.09-.33.14-.02,0-.04.02-.06.03-.11.05-.23.1-.34.15-.02,0-.03.01-.05.02-.11.05-.23.1-.34.15-.01,0-.02.01-.04.02-.12.05-.23.1-.34.16,0,0-.02,0-.02.01-.12.05-.23.11-.35.16,0,0,0,0-.01,0-.12.06-.23.11-.35.17,0,0,0,0,0,0-.12.06-.23.11-.35.17v-20.93c0-10.67,15.43-16.11,15.43-16.11,0,0,1.66.58,3.88,1.74,0,0,.02,0,.03.01.9.47,1.9,1.04,2.92,1.7.11.07.23.15.35.23.23.15.46.31.69.47.15.1.3.21.44.32.08.06.16.12.25.18.17.13.34.26.5.39.05.04.09.07.14.11.45.36.89.74,1.32,1.14.02.02.03.03.05.05,2.7,2.52,4.86,5.78,4.86,9.77v20.93c-.11-.06-.23-.11-.35-.17,0,0,0,0,0,0Z"/>
        <path class="cls-1" d="M356.99,218.8c-23.44,11.76-21.89,28.73-21.89,28.73v30.98c-.05.52,0,.82,0,.82v41.99h8.79v-42.11c0-6.07,13.1-9.17,13.1-9.17,0,0,13.1,3.1,13.1,9.17v42.11h8.79v-41.99s.05-.3,0-.82v-30.98s1.55-16.98-21.89-28.73ZM370.09,268.24c-3.13-1.81-7.37-3.62-13.1-5.25-5.73,1.64-9.97,3.45-13.1,5.25v-20.93c0-10.67,13.1-16.11,13.1-16.11,0,0,13.1,5.44,13.1,16.11v20.93Z"/>
        <path class="cls-1" d="M397.91,218.8c-13.94,11.76-13.02,28.73-13.02,28.73v30.98c-.03.52,0,.82,0,.82v41.99h5.23v-42.11c0-6.07,7.79-9.17,7.79-9.17,0,0,7.79,3.1,7.79,9.17v42.11h5.23v-41.99s.03-.3,0-.82v-30.98s.92-16.98-13.02-28.73ZM405.7,268.24c-1.86-1.81-4.38-3.62-7.79-5.25-3.41,1.64-5.93,3.45-7.79,5.25v-20.93c0-10.67,7.79-16.11,7.79-16.11,0,0,7.79,5.44,7.79,16.11v20.93Z"/>
        <polygon class="cls-1" points="243.92 166.12 243.08 166.12 123.03 166.12 123.03 188.54 141.17 188.54 141.17 174.41 161.64 174.41 161.64 188.54 173.25 188.54 173.25 174.41 193.71 174.41 193.71 188.54 205.32 188.54 205.32 174.41 225.78 174.41 225.78 188.54 243.08 188.54 243.92 188.54 261.22 188.54 261.22 174.41 281.68 174.41 281.68 188.54 293.29 188.54 293.29 174.41 313.75 174.41 313.75 188.54 325.36 188.54 325.36 174.41 345.83 174.41 345.83 188.54 363.97 188.54 363.97 166.12 243.92 166.12"/>
        <path class="cls-1" d="M250.03,214.59h170.96c-25.54-15.96-58.99-17.56-58.99-17.56H125.01s-33.45,1.6-58.99,17.56h184.02Z"/>
        <path class="cls-1" d="M250.12,325.83H61.3c26.21,6,60.53,6.6,60.53,6.6h243.17s34.32-.6,60.53-6.6h-175.42Z"/>
        <path class="cls-1" d="M186.75,220.49c-1.17-.57-2.4-1.14-3.7-1.69-3.98,1.69-7.35,3.5-10.2,5.34-.12.07-.23.15-.34.22-2.08,1.37-3.88,2.76-5.43,4.14-.03.02-.05.05-.08.07-.2.18-.41.37-.6.55-.33.31-.66.62-.97.93,0,0,0,0,0,0-.19.19-.38.39-.57.58-.7.73-1.34,1.46-1.92,2.18-.19.24-.38.48-.56.72-.34.45-.66.9-.96,1.34-.09.13-.17.25-.25.38-.03.05-.07.11-.1.16-.15.23-.28.45-.42.67-.09.15-.18.31-.27.46-.34.59-.64,1.16-.92,1.72-.08.16-.16.33-.23.49-.13.28-.25.56-.37.84-.01.03-.02.06-.04.09-1.9,4.62-1.55,7.84-1.55,7.84v30.98c-.06.52,0,.82,0,.82v41.99h10.35v-42.11c0-6.07,15.43-9.17,15.43-9.17,0,0,.59.12,1.54.35.08.02.15.04.23.06.16.04.34.09.52.13.08.02.17.04.25.07.3.08.61.17.94.26.08.02.15.04.23.07.48.14.98.29,1.5.46.12.04.24.08.36.12.38.13.77.26,1.17.41.11.04.21.08.32.12.94.35,1.88.75,2.79,1.19.12.06.24.12.36.18,2.87,1.46,5.22,3.37,5.22,5.74v42.11h10.35v-41.99s.06-.3,0-.82v-30.98s1.66-15.42-22.09-27.05ZM197.79,267.91s0,0-.01,0c-.11-.05-.23-.11-.35-.16,0,0-.01,0-.02,0-.11-.05-.23-.1-.34-.16-.01,0-.02-.01-.04-.02-.11-.05-.22-.1-.34-.15-.02,0-.03-.01-.05-.02-.11-.05-.22-.1-.34-.15-.02,0-.04-.02-.06-.02-.11-.05-.22-.09-.33-.14-.02,0-.05-.02-.07-.03-.11-.05-.22-.09-.33-.14-.03-.01-.05-.02-.08-.03-.11-.04-.22-.09-.33-.13-.03-.01-.06-.02-.09-.04-.11-.04-.22-.09-.33-.13-.03-.01-.07-.03-.1-.04-.11-.04-.22-.08-.32-.13-.04-.01-.08-.03-.11-.04-.11-.04-.22-.08-.32-.12-.04-.02-.08-.03-.12-.05-.11-.04-.21-.08-.32-.12-.04-.02-.09-.03-.14-.05-.11-.04-.21-.08-.32-.12-.05-.02-.1-.03-.14-.05-.11-.04-.21-.08-.32-.11-.05-.02-.1-.04-.16-.06-.11-.04-.21-.07-.32-.11-.06-.02-.11-.04-.17-.06-.1-.04-.21-.07-.32-.11-.06-.02-.12-.04-.18-.06-.1-.04-.21-.07-.31-.11-.06-.02-.13-.04-.19-.06-.1-.03-.21-.07-.31-.1-.07-.02-.14-.04-.2-.07-.1-.03-.2-.07-.31-.1-.07-.02-.14-.05-.22-.07-.1-.03-.2-.06-.31-.1-.07-.02-.15-.05-.22-.07-.1-.03-.2-.06-.31-.09-.08-.02-.16-.05-.24-.07-.1-.03-.2-.06-.31-.09-.08-.02-.17-.05-.25-.07-.1-.03-.2-.06-.3-.09-.09-.03-.18-.05-.27-.08-.1-.03-.2-.06-.29-.08-.1-.03-.19-.05-.29-.08-.09-.03-.19-.05-.28-.08-.1-.03-.2-.06-.31-.08-.09-.03-.18-.05-.28-.08-.11-.03-.22-.06-.33-.09-.09-.02-.17-.05-.26-.07-.13-.03-.25-.07-.38-.1-.07-.02-.15-.04-.22-.06-.14-.04-.29-.07-.44-.11-.06-.02-.12-.03-.18-.05-.18-.04-.36-.09-.53-.13-.03,0-.06-.01-.09-.02-.21-.05-.42-.1-.64-.16-.22.05-.43.1-.64.16-.01,0-.03,0-.04.01-.19.05-.39.1-.58.15-.05.01-.1.03-.16.04-.15.04-.31.08-.46.12-.07.02-.14.04-.21.05-.13.03-.26.07-.4.1-.08.02-.16.04-.25.07-.12.03-.23.06-.35.09-.09.02-.18.05-.27.07-.11.03-.21.06-.31.09-.09.03-.18.05-.28.08-.1.03-.2.06-.29.08-.1.03-.19.05-.29.08-.09.03-.18.05-.27.08-.1.03-.2.06-.3.09-.08.02-.17.05-.25.07-.1.03-.2.06-.3.09-.08.02-.16.05-.24.07-.1.03-.2.06-.3.09-.08.02-.15.05-.23.07-.1.03-.2.06-.31.1-.07.02-.15.05-.22.07-.1.03-.2.07-.3.1-.07.02-.14.04-.21.07-.1.03-.21.07-.31.1-.06.02-.13.04-.19.06-.1.03-.21.07-.31.1-.06.02-.12.04-.18.06-.11.04-.21.07-.31.11-.06.02-.11.04-.17.06-.11.04-.21.07-.32.11-.05.02-.11.04-.16.06-.11.04-.21.08-.32.11-.05.02-.1.04-.15.05-.11.04-.21.08-.32.12-.05.02-.09.03-.14.05-.11.04-.21.08-.32.12-.04.02-.08.03-.12.05-.11.04-.22.08-.32.12-.04.01-.08.03-.12.04-.11.04-.22.08-.32.13-.04.01-.07.03-.1.04-.11.04-.22.09-.32.13-.03.01-.06.03-.09.04-.11.04-.22.09-.33.13-.03.01-.06.02-.08.03-.11.05-.22.09-.33.14-.02.01-.05.02-.07.03-.11.05-.22.09-.33.14-.02,0-.04.02-.06.03-.11.05-.22.1-.33.14-.02,0-.03.02-.05.02-.11.05-.22.1-.33.15-.01,0-.03.01-.04.02-.11.05-.23.1-.34.15,0,0-.02,0-.03.01-.11.05-.23.11-.34.16,0,0-.01,0-.02,0-.12.05-.23.11-.34.16,0,0,0,0,0,0-.12.06-.23.11-.35.17v-20.93c0-5.88,4.68-10.17,8.89-12.84.92-.58,1.81-1.09,2.63-1.51,0,0,.02,0,.03-.01.21-.11.41-.21.61-.31h0c1.91-.95,3.27-1.43,3.27-1.43,0,0,15.43,5.44,15.43,16.11v20.93c-.23-.11-.46-.22-.7-.34Z"/>
        <path class="cls-1" d="M243.5,218.8c-27.61,11.76-25.78,28.73-25.78,28.73v30.98c-.06.52,0,.82,0,.82v41.99h10.35v-42.11c0-6.07,15.43-9.17,15.43-9.17,0,0,15.43,3.1,15.43,9.17v42.11h10.35v-41.99s.06-.3,0-.82v-30.98s1.83-16.98-25.78-28.73ZM258.93,268.24c-3.69-1.81-8.68-3.62-15.43-5.25-6.75,1.64-11.74,3.45-15.43,5.25v-20.93c0-10.67,15.43-16.11,15.43-16.11,0,0,15.43,5.44,15.43,16.11v20.93Z"/>
        <path class="cls-1" d="M130.01,218.8c-23.44,11.76-21.89,28.73-21.89,28.73v30.98c-.05.52,0,.82,0,.82v41.99h8.79v-42.11c0-6.07,13.1-9.17,13.1-9.17,0,0,13.1,3.1,13.1,9.17v42.11h8.79v-41.99s.05-.3,0-.82v-30.98s1.55-16.98-21.89-28.73ZM143.11,268.24c-3.13-1.81-7.37-3.62-13.1-5.25-5.73,1.64-9.97,3.45-13.1,5.25v-20.93c0-10.67,13.1-16.11,13.1-16.11,0,0,13.1,5.44,13.1,16.11v20.93Z"/>
        <path class="cls-1" d="M89.09,218.8c-13.94,11.76-13.02,28.73-13.02,28.73v30.98c-.03.52,0,.82,0,.82v41.99h5.23v-42.11c0-6.07,7.79-9.17,7.79-9.17,0,0,7.79,3.1,7.79,9.17v42.11h5.23v-41.99s.03-.3,0-.82v-30.98s.92-16.98-13.02-28.73ZM96.88,268.24c-1.86-1.81-4.38-3.62-7.79-5.25-3.41,1.64-5.93,3.45-7.79,5.25v-20.93c0-10.67,7.79-16.11,7.79-16.11,0,0,7.79,5.44,7.79,16.11v20.93Z"/>
        <path class="cls-1" d="M61.3,321.33h1.89v-42.11c0-6.07,2.82-9.17,2.82-9.17,0,0,2.82,3.1,2.82,9.17v42.11h1.89v-41.99s.01-.3,0-.82v-30.98s.33-16.98-4.71-28.73c-2.51,5.85-4.6,34.64-4.71,28.73v30.98c-.01.52,0,.82,0,.82v41.99ZM63.19,247.31c0-10.67,2.82-16.11,2.82-16.11,0,0,2.82,5.44,2.82,16.11v20.93c-.67-1.81-1.59-3.62-2.82-5.25-1.23,1.64-2.15,3.45-2.82,5.25v-20.93Z"/>
        <path class="cls-1" d="M420.82,218.8c-5.05,11.76-4.71,28.73-4.71,28.73v30.98c-.01.52,0,.82,0,.82v41.99h1.89v-42.11c0-6.07,2.82-9.17,2.82-9.17,0,0,2.82,3.1,2.82,9.17v42.11h1.89v-41.99s.01-.3,0-.82v-30.98s.33-16.98-4.71-28.73ZM423.64,268.24c-.67-1.81-1.59-3.62-2.82-5.25-1.23,1.64-2.15,3.45-2.82,5.25v-20.93c0-10.67,2.82-16.11,2.82-16.11,0,0,2.82,5.44,2.82,16.11v20.93Z"/>
      </g>
    </g>
  </g>
</svg>