<?xml version="1.0" encoding="UTF-8"?>
<svg id="Layer_2" xmlns="http://www.w3.org/2000/svg" viewBox="0 0 814.88 212.34">
  <defs>
    <style>
      .cls-1 {
        fill: #fff;
      }

      .cls-2 {
        fill: #383838;
      }

      .cls-3 {
        fill: #e94068;
      }
    </style>
  </defs>
  <g id="Layer_2-2" data-name="Layer_2">
    <g>
      <g>
        <path class="cls-3" d="M0,133.57V42.13h15.43v43.31h-1.9v48.13H0ZM33.08,135.48c-6.69,0-12.3-1.59-16.83-4.76-4.53-3.17-7.94-7.5-10.22-12.99s-3.43-11.63-3.43-18.45,1.14-13.08,3.43-18.54,5.64-9.77,10.06-12.92c4.42-3.15,9.9-4.73,16.41-4.73s12.1,1.58,16.86,4.73c4.76,3.15,8.46,7.45,11.08,12.89,2.62,5.44,3.94,11.63,3.94,18.57s-1.29,13.02-3.87,18.48c-2.58,5.46-6.22,9.78-10.92,12.95-4.7,3.17-10.2,4.76-16.51,4.76ZM30.73,121.76c3.98,0,7.26-.99,9.84-2.98,2.58-1.99,4.5-4.69,5.75-8.1,1.25-3.41,1.87-7.21,1.87-11.4s-.63-7.93-1.9-11.33-3.24-6.12-5.91-8.13c-2.67-2.01-6.05-3.02-10.16-3.02-3.9,0-7.07.94-9.52,2.83-2.46,1.88-4.27,4.51-5.43,7.87-1.16,3.37-1.75,7.29-1.75,11.78s.58,8.36,1.75,11.75c1.16,3.39,3.01,6.02,5.52,7.91,2.52,1.88,5.83,2.83,9.94,2.83Z"/>
        <path class="cls-3" d="M104.96,135.48c-6.94,0-13.04-1.5-18.29-4.51-5.25-3-9.35-7.17-12.29-12.51-2.94-5.33-4.41-11.47-4.41-18.42,0-7.49,1.44-14,4.32-19.53,2.88-5.52,6.88-9.81,12-12.86,5.12-3.05,11.05-4.57,17.78-4.57,7.11,0,13.15,1.66,18.13,4.98,4.97,3.32,8.67,8.01,11.08,14.07s3.32,13.19,2.73,21.4h-15.18v-5.59c-.04-7.45-1.35-12.89-3.94-16.32-2.58-3.43-6.65-5.14-12.19-5.14-6.27,0-10.92,1.94-13.97,5.81-3.05,3.87-4.57,9.54-4.57,16.99,0,6.94,1.52,12.32,4.57,16.13,3.05,3.81,7.49,5.72,13.33,5.72,3.77,0,7.02-.84,9.75-2.51,2.73-1.67,4.84-4.1,6.32-7.27l15.11,4.57c-2.62,6.18-6.68,10.99-12.16,14.41-5.48,3.43-11.53,5.14-18.13,5.14ZM81.34,103.54v-11.56h47.18v11.56h-47.18Z"/>
        <path class="cls-3" d="M143.64,133.57v-68.58h13.65v21.27h1.84v47.31h-15.49ZM191.2,133.57v-33.02c0-2.16-.15-4.55-.44-7.18-.3-2.62-.98-5.15-2.06-7.59-1.08-2.43-2.69-4.43-4.83-6-2.14-1.57-5.03-2.35-8.67-2.35-1.95,0-3.87.32-5.78.95-1.9.64-3.63,1.73-5.18,3.27s-2.78,3.66-3.71,6.35c-.93,2.69-1.4,6.13-1.4,10.32l-9.08-3.87c0-5.84,1.13-11.13,3.4-15.88,2.26-4.74,5.6-8.52,10-11.33,4.4-2.82,9.82-4.22,16.26-4.22,5.08,0,9.27.85,12.57,2.54,3.3,1.69,5.93,3.85,7.87,6.48,1.95,2.62,3.39,5.42,4.32,8.38.93,2.96,1.53,5.77,1.81,8.41.27,2.65.41,4.79.41,6.45v38.29h-15.49Z"/>
        <path class="cls-3" d="M246.12,135.48c-6.31,0-11.81-1.59-16.51-4.76s-8.34-7.49-10.92-12.95c-2.58-5.46-3.87-11.62-3.87-18.48s1.3-13.13,3.91-18.57,6.3-9.74,11.08-12.89c4.78-3.15,10.41-4.73,16.89-4.73s11.99,1.58,16.41,4.73c4.42,3.15,7.78,7.46,10.06,12.92s3.43,11.64,3.43,18.54-1.14,12.96-3.43,18.45-5.69,9.81-10.22,12.99c-4.53,3.17-10.14,4.76-16.83,4.76ZM247.46,165.96c-3.81,0-7.46-.59-10.95-1.78-3.49-1.19-6.64-2.89-9.43-5.11-2.79-2.22-5.08-4.9-6.86-8.03l14.1-6.99c1.31,2.5,3.16,4.35,5.56,5.56,2.39,1.21,4.94,1.81,7.65,1.81,3.17,0,6.01-.56,8.51-1.68,2.5-1.12,4.43-2.77,5.81-4.95,1.38-2.18,2.02-4.9,1.94-8.16v-19.49h1.9v-52.13h13.4v71.88c0,1.74-.07,3.4-.22,4.99-.15,1.59-.39,3.14-.73,4.67-1.02,4.45-2.96,8.1-5.84,10.95-2.88,2.86-6.45,4.98-10.7,6.38-4.25,1.4-8.96,2.09-14.13,2.09ZM248.47,121.76c4.11,0,7.42-.94,9.94-2.83,2.52-1.88,4.36-4.52,5.52-7.91,1.16-3.39,1.75-7.3,1.75-11.75s-.58-8.41-1.75-11.78c-1.17-3.37-2.97-5.99-5.43-7.87-2.46-1.88-5.63-2.83-9.52-2.83-4.11,0-7.49,1.01-10.16,3.02-2.67,2.01-4.64,4.72-5.91,8.13-1.27,3.41-1.91,7.19-1.91,11.33s.62,7.99,1.87,11.4c1.25,3.41,3.16,6.11,5.75,8.1,2.58,1.99,5.86,2.98,9.84,2.98Z"/>
        <path class="cls-3" d="M311.46,135.48c-4.95,0-9.14-.94-12.57-2.83-3.43-1.88-6.02-4.39-7.78-7.52-1.76-3.13-2.64-6.58-2.64-10.35,0-3.3.55-6.28,1.65-8.92,1.1-2.64,2.79-4.93,5.08-6.86,2.29-1.93,5.25-3.5,8.89-4.73,2.75-.89,5.98-1.69,9.68-2.41,3.7-.72,7.73-1.39,12.06-2,4.34-.61,8.88-1.28,13.62-2l-5.46,3.11c.04-4.74-1.02-8.23-3.17-10.48-2.16-2.24-5.8-3.37-10.92-3.37-3.09,0-6.08.72-8.95,2.16-2.88,1.44-4.89,3.92-6.03,7.43l-13.97-4.38c1.69-5.8,4.92-10.46,9.68-13.97s11.19-5.27,19.27-5.27c6.1,0,11.46,1,16.1,2.98,4.64,1.99,8.07,5.25,10.32,9.78,1.23,2.41,1.97,4.88,2.22,7.4s.38,5.26.38,8.22v42.1h-13.4v-14.86l2.22,2.41c-3.09,4.95-6.7,8.58-10.83,10.89s-9.28,3.46-15.46,3.46ZM314.51,123.29c3.47,0,6.43-.61,8.89-1.84,2.45-1.23,4.41-2.73,5.87-4.51s2.44-3.45,2.95-5.02c.8-1.95,1.26-4.18,1.37-6.7.1-2.52.16-4.56.16-6.13l4.7,1.4c-4.61.72-8.57,1.36-11.87,1.9-3.3.55-6.14,1.07-8.51,1.56-2.37.49-4.47,1.03-6.29,1.62-1.78.63-3.28,1.38-4.51,2.22-1.23.85-2.17,1.82-2.83,2.92-.66,1.1-.98,2.39-.98,3.87,0,1.69.42,3.19,1.27,4.48.85,1.29,2.08,2.32,3.71,3.08,1.63.76,3.65,1.14,6.06,1.14Z"/>
        <path class="cls-3" d="M362.14,133.57V40.23h15.3v93.34h-15.3Z"/>
        <path class="cls-3" d="M417.63,135.54c-5.08,0-9.27-.85-12.57-2.54-3.3-1.69-5.93-3.85-7.87-6.48-1.95-2.62-3.39-5.42-4.32-8.38-.93-2.96-1.53-5.77-1.81-8.41-.28-2.65-.41-4.79-.41-6.45v-38.29h15.49v33.02c0,2.12.15,4.5.44,7.14.3,2.65.98,5.19,2.06,7.62,1.08,2.43,2.69,4.43,4.83,6,2.14,1.57,5.03,2.35,8.67,2.35,1.95,0,3.87-.32,5.78-.95s3.63-1.72,5.17-3.27c1.54-1.54,2.78-3.67,3.71-6.38.93-2.71,1.4-6.14,1.4-10.29l9.08,3.87c0,5.84-1.13,11.13-3.4,15.88-2.27,4.74-5.6,8.52-10,11.33-4.4,2.81-9.82,4.22-16.26,4.22ZM440.05,133.57v-21.27h-1.84v-47.31h15.37v68.58h-13.53Z"/>
        <path class="cls-3" d="M466.78,133.57v-68.58h13.53v16.7l-1.65-2.16c.85-2.29,1.98-4.37,3.4-6.25,1.42-1.88,3.12-3.44,5.11-4.67,1.69-1.14,3.57-2.04,5.62-2.7,2.05-.66,4.16-1.06,6.32-1.21,2.16-.15,4.25-.05,6.29.29v14.29c-2.03-.59-4.37-.78-7.02-.57-2.65.21-5.03.95-7.14,2.22-2.12,1.14-3.84,2.6-5.18,4.38-1.33,1.78-2.32,3.8-2.95,6.06-.64,2.26-.95,4.71-.95,7.33v34.86h-15.37Z"/>
        <path class="cls-3" d="M538.6,135.54c-5.08,0-9.27-.85-12.57-2.54-3.3-1.69-5.93-3.85-7.87-6.48s-3.39-5.42-4.32-8.38c-.93-2.96-1.54-5.77-1.81-8.41-.28-2.65-.41-4.79-.41-6.45v-38.29h15.49v33.02c0,2.12.15,4.5.44,7.14.3,2.65.98,5.19,2.06,7.62,1.08,2.43,2.69,4.43,4.83,6,2.14,1.57,5.03,2.35,8.67,2.35,1.95,0,3.87-.32,5.78-.95s3.63-1.72,5.17-3.27c1.54-1.54,2.78-3.67,3.71-6.38.93-2.71,1.4-6.14,1.4-10.29l9.08,3.87c0,5.84-1.13,11.13-3.4,15.88-2.27,4.74-5.6,8.52-10,11.33-4.4,2.81-9.82,4.22-16.26,4.22ZM561.01,133.57v-21.27h-1.84v-47.31h15.37v68.58h-13.53Z"/>
      </g>
      <g>
        <path class="cls-2" d="M303.81,191.4c-2.23,0-4.1-.41-5.61-1.24-1.51-.83-2.65-1.93-3.42-3.29-.77-1.37-1.16-2.87-1.16-4.51,0-1.52.27-2.86.81-4.02.54-1.15,1.34-2.13,2.4-2.94,1.06-.81,2.36-1.46,3.91-1.97,1.34-.39,2.85-.73,4.55-1.03,1.69-.3,3.47-.58,5.34-.84,1.87-.26,3.72-.52,5.57-.78l-2.12,1.17c.04-2.36-.46-4.11-1.49-5.26-1.03-1.14-2.8-1.72-5.31-1.72-1.58,0-3.03.37-4.35,1.1-1.32.73-2.24,1.95-2.76,3.64l-5.44-1.67c.74-2.58,2.16-4.64,4.25-6.17,2.09-1.53,4.88-2.29,8.36-2.29,2.7,0,5.04.46,7.04,1.38,2,.92,3.46,2.38,4.39,4.37.48.99.78,2.03.89,3.12.11,1.1.17,2.28.17,3.54v18.55h-5.16v-6.89l1,.89c-1.25,2.31-2.83,4.02-4.76,5.15-1.93,1.13-4.29,1.69-7.1,1.69ZM304.84,186.63c1.66,0,3.08-.29,4.27-.88,1.19-.59,2.15-1.33,2.87-2.25.73-.91,1.2-1.86,1.42-2.85.32-.89.5-1.9.54-3.01s.07-2.01.07-2.68l1.9.7c-1.84.28-3.52.53-5.02.75-1.51.22-2.87.44-4.09.66-1.22.21-2.3.47-3.25.77-.8.28-1.51.61-2.13,1-.62.39-1.12.87-1.48,1.42-.36.56-.54,1.24-.54,2.04s.2,1.5.59,2.16c.39.66.99,1.19,1.79,1.58.8.39,1.82.59,3.07.59Z"/>
        <path class="cls-2" d="M326.6,190.56v-30.13h5.22v8.7h.7v21.43h-5.91ZM347.78,190.56v-14.81c0-1.17-.1-2.38-.29-3.61-.2-1.24-.57-2.38-1.12-3.45-.55-1.06-1.32-1.92-2.32-2.57s-2.29-.98-3.89-.98c-1.04,0-2.03.17-2.96.52-.93.34-1.74.9-2.44,1.66-.7.76-1.25,1.77-1.65,3.01-.4,1.25-.6,2.76-.6,4.55l-3.63-1.37c0-2.73.51-5.15,1.53-7.24,1.02-2.09,2.49-3.72,4.41-4.9s4.23-1.76,6.95-1.76c2.08,0,3.83.33,5.24,1s2.56,1.55,3.45,2.64c.88,1.09,1.56,2.27,2.02,3.56.46,1.28.78,2.54.95,3.77.17,1.23.25,2.31.25,3.24v16.74h-5.91Z"/>
        <path class="cls-2" d="M361.06,155.49v-5.66h5.83v5.66h-5.83ZM361.06,190.56v-30.13h5.83v30.13h-5.83Z"/>
        <path class="cls-2" d="M374.78,190.56v-30.13h5.19v8.7h.67v21.43h-5.86ZM392.86,190.56l.03-18.66c0-2.19-.55-3.92-1.66-5.16-1.11-1.25-2.59-1.87-4.45-1.87s-3.32.63-4.45,1.9c-1.13,1.26-1.69,2.92-1.69,4.97l-2.79-1.79c0-1.97.47-3.73,1.42-5.27.95-1.54,2.23-2.76,3.85-3.65s3.45-1.34,5.5-1.34,3.96.45,5.47,1.35c1.51.9,2.65,2.16,3.45,3.78s1.19,3.5,1.19,5.64l-.03,20.11h-5.83ZM410.91,190.56l.03-18.78c0-2.18-.56-3.87-1.67-5.09-1.12-1.22-2.59-1.83-4.41-1.83-1.12,0-2.13.26-3.05.77-.92.51-1.67,1.27-2.23,2.29-.57,1.01-.85,2.28-.85,3.81l-2.82-1.42c-.04-2.12.41-3.98,1.35-5.58.94-1.6,2.22-2.84,3.84-3.72,1.62-.88,3.43-1.33,5.44-1.33,3.25,0,5.78.98,7.56,2.93,1.79,1.95,2.68,4.55,2.68,7.78l-.03,20.17h-5.83Z"/>
        <path class="cls-2" d="M436.57,191.4c-2.99,0-5.62-.66-7.88-1.97-2.26-1.31-4.02-3.14-5.27-5.5-1.26-2.35-1.88-5.08-1.88-8.19,0-3.29.62-6.15,1.85-8.56,1.24-2.42,2.96-4.29,5.18-5.61,2.21-1.32,4.79-1.98,7.73-1.98s5.68.71,7.84,2.13,3.77,3.45,4.84,6.07c1.07,2.62,1.49,5.74,1.27,9.35h-5.83v-2.12c-.04-3.5-.7-6.08-2-7.76s-3.26-2.51-5.9-2.51c-2.92,0-5.11.92-6.58,2.76-1.47,1.84-2.2,4.5-2.2,7.98s.73,5.87,2.2,7.69c1.47,1.81,3.59,2.72,6.36,2.72,1.82,0,3.4-.41,4.73-1.24,1.33-.83,2.37-2.01,3.11-3.56l5.72,1.81c-1.17,2.7-2.95,4.79-5.33,6.26s-5.03,2.22-7.95,2.22ZM425.83,177.14v-4.55h21.51v4.55h-21.51Z"/>
        <path class="cls-2" d="M479.65,191.4c-3.09,0-5.71-.69-7.87-2.06-2.16-1.38-3.81-3.26-4.95-5.66-1.14-2.4-1.73-5.12-1.74-8.17.02-3.11.61-5.85,1.79-8.24s2.85-4.26,5.02-5.62c2.18-1.36,4.79-2.04,7.84-2.04,3.29,0,6.11.82,8.44,2.46s3.87,3.88,4.62,6.72l-5.8,1.67c-.58-1.69-1.52-3.01-2.83-3.95-1.31-.94-2.81-1.41-4.5-1.41-1.92,0-3.49.45-4.71,1.35-1.23.9-2.14,2.13-2.73,3.7-.59,1.56-.9,3.35-.92,5.36.02,3.11.73,5.62,2.13,7.53,1.4,1.92,3.48,2.87,6.24,2.87,1.88,0,3.4-.43,4.56-1.3,1.16-.87,2.05-2.11,2.66-3.72l5.91,1.39c-.99,2.94-2.61,5.19-4.88,6.77-2.27,1.57-5.02,2.36-8.26,2.36Z"/>
        <path class="cls-2" d="M497.75,190.56v-41.01h5.83v41.01h-5.83Z"/>
        <path class="cls-2" d="M522.86,191.37c-2.08,0-3.83-.33-5.25-1-1.41-.67-2.56-1.55-3.45-2.64-.88-1.09-1.56-2.27-2.02-3.56-.47-1.28-.78-2.54-.95-3.77-.17-1.23-.25-2.31-.25-3.24v-16.74h5.92v14.81c0,1.17.1,2.38.29,3.61s.57,2.38,1.12,3.45c.55,1.06,1.32,1.92,2.32,2.57,1,.65,2.29.98,3.89.98,1.04,0,2.03-.17,2.96-.52.93-.34,1.74-.9,2.44-1.66s1.25-1.77,1.65-3.01c.4-1.25.6-2.76.6-4.55l3.63,1.37c0,2.73-.51,5.15-1.54,7.24-1.02,2.09-2.49,3.72-4.41,4.9-1.92,1.17-4.23,1.76-6.95,1.76ZM532.82,190.56v-8.7h-.7v-21.43h5.89v30.13h-5.19Z"/>
        <path class="cls-2" d="M545.35,190.56v-40.17h5.86v18.5h-.67v21.68h-5.19ZM559.52,191.4c-2.88,0-5.3-.7-7.25-2.11s-3.43-3.31-4.44-5.71c-1-2.4-1.51-5.11-1.51-8.12s.5-5.72,1.49-8.12,2.46-4.29,4.41-5.68c1.94-1.38,4.34-2.08,7.18-2.08s5.27.69,7.32,2.08c2.05,1.39,3.64,3.27,4.76,5.66,1.12,2.39,1.67,5.1,1.67,8.13s-.55,5.72-1.66,8.13c-1.11,2.41-2.68,4.31-4.71,5.71-2.04,1.4-4.46,2.09-7.27,2.09ZM558.71,186.12c1.86,0,3.4-.47,4.62-1.42,1.22-.95,2.13-2.23,2.73-3.84s.91-3.41.91-5.4-.3-3.76-.91-5.36-1.53-2.87-2.78-3.82-2.84-1.42-4.77-1.42c-1.82,0-3.33.45-4.51,1.34-1.18.89-2.05,2.14-2.62,3.74-.57,1.6-.85,3.44-.85,5.52s.28,3.92.84,5.52c.56,1.6,1.44,2.86,2.65,3.77,1.21.91,2.77,1.37,4.69,1.37Z"/>
      </g>
      <g>
        <path class="cls-2" d="M45.26,29.75c.89,0,1.77.65,2.66,1.95l8.34,12.09-2.15,1.62-8.4-12.03c-.39-.6-.77-.9-1.15-.9s-.87.22-1.45.66c-1.48,1.13-2.62,2.17-3.4,3.12l-1.54-1.99c1.88-1.88,3.5-3.2,4.88-3.96.7-.38,1.44-.57,2.21-.57ZM50.83,29.59c.3.55.57,1.12.82,1.72l-1.48.49c-.23-.68-.47-1.28-.7-1.82l1.37-.39ZM53.1,29.28c.3.56.57,1.13.82,1.72l-1.54.47c-.16-.6-.38-1.2-.66-1.82l1.39-.37Z"/>
        <path class="cls-2" d="M64.72,28.66c3.31.34,6.47,1.04,9.49,2.11l-.7,2.56c-2.92-1-6-1.65-9.26-1.95l.47-2.71ZM80.21,30.22l2.21,1.48c-1.52,3.72-3.02,6.48-4.49,8.28-1.24,1.45-2.94,2.79-5.12,4.04-1.93,1.08-4.23,1.99-6.89,2.71l-1.19-2.3c2.5-.7,4.65-1.57,6.46-2.6,2.14-1.22,3.75-2.49,4.84-3.81,1.41-1.73,2.8-4.34,4.18-7.81Z"/>
        <path class="cls-2" d="M102.07,30.94c1.63,0,2.92.33,3.87,1,1.13.82,1.7,2.06,1.7,3.73,0,1.29-.35,3.03-1.05,5.23-.72,2.27-1.53,4.26-2.44,6l-2.68-1.11c.94-1.69,1.75-3.47,2.44-5.33.72-1.95,1.07-3.5,1.07-4.65,0-1.67-1.05-2.5-3.16-2.5-.27,0-.72.03-1.35.08-.69,1.48-1.49,3.07-2.4,4.75-1.69,3.14-3.49,5.91-5.39,8.3l-2.27-1.41c2.06-2.68,3.96-5.69,5.7-9.02.22-.46.56-1.11,1.02-1.97-.07.03-.12.04-.16.04-2.03.52-3.82,1.17-5.35,1.93l-.9-2.21c1.22-.65,2.92-1.28,5.1-1.89.89-.22,1.74-.42,2.58-.61.47-1.05.88-2.06,1.23-3.03l2.42.94c-.16.56-.35,1.15-.59,1.76.08,0,.19,0,.33-.02h.27ZM105.56,28.5c.26.48.54,1.05.84,1.72l-1.52.47c-.23-.65-.46-1.25-.68-1.8l1.37-.39ZM107.67,28.21c.16.33.43.9.82,1.72l-1.52.43c-.21-.62-.42-1.22-.64-1.78l1.35-.37Z"/>
        <path class="cls-2" d="M120.88,29.2l2.62.55c-1.02,5.74-2.69,11.3-5.02,16.68l-2.38-1.02c2.11-5.03,3.7-10.43,4.79-16.21ZM125.98,28.5l2.68.21c-.47,4.57-.7,9.39-.7,14.45,0,.25.03.41.1.49.12.14.32.23.61.27.61-.04,1.57-.46,2.87-1.27.9-.56,1.78-1.17,2.66-1.84l-.16,3.05c-2.44,1.73-4.43,2.64-6,2.71-.86-.04-1.56-.37-2.11-1-.42-.5-.62-1.3-.62-2.42,0-4.88.23-9.77.68-14.67Z"/>
        <path class="cls-2" d="M159.5,38.93h-16.6v-2.62h16.6v2.62Z"/>
        <path class="cls-2" d="M172.88,29.2l2.62.55c-1.02,5.74-2.69,11.3-5.02,16.68l-2.38-1.02c2.11-5.03,3.7-10.43,4.79-16.21ZM177.98,28.5l2.68.21c-.47,4.57-.7,9.39-.7,14.45,0,.25.03.41.1.49.12.14.32.23.61.27.61-.04,1.57-.46,2.87-1.27.9-.56,1.78-1.17,2.66-1.84l-.16,3.05c-2.44,1.73-4.43,2.64-6,2.71-.86-.04-1.56-.37-2.11-1-.42-.5-.62-1.3-.62-2.42,0-4.88.23-9.77.68-14.67Z"/>
        <path class="cls-2" d="M206.42,28.66c3.84,0,5.76,1.3,5.76,3.89,0,1.09-.53,2.34-1.58,3.75-1.25,1.68-2.55,3.06-3.89,4.14l-2.15-1.91c1.08-.72,2.14-1.66,3.16-2.83,1.11-1.21,1.67-2.26,1.68-3.14.04-.44-.32-.75-1.07-.94-.42-.1-1.22-.16-2.42-.16-1.73,0-3.57.25-5.53.76-2.1.51-3.62,1.07-4.57,1.7l-1.56-2.83c1.77-.77,3.75-1.37,5.94-1.8,2.12-.42,4.2-.62,6.23-.62ZM202.28,32.64l2.83.76c-.42,1.81-1.05,3.57-1.91,5.29-1.38,2.79-3.17,5.42-5.37,7.89l-2.4-1.6c1.91-2.19,3.58-4.62,5-7.3.89-1.68,1.5-3.36,1.86-5.04Z"/>
        <path class="cls-2" d="M220.56,42.52h17.3v2.66h-17.3v-2.66ZM222.15,29.83c1.24.1,3.31.16,6.23.16,3.55,0,6.3-.05,8.24-.16l-.1,2.64c-2.49.09-5.08.12-7.79.1-2.46,0-4.7-.04-6.72-.12l.14-2.62Z"/>
        <path class="cls-2" d="M260.22,28.66l2.48.88c-.78,3-1.88,5.71-3.3,8.14,1.69,1.55,3.13,3.2,4.32,4.94l-2.01,1.6c-1.13-1.55-2.43-3-3.89-4.36-1.11,1.35-2.39,2.51-3.85,3.48-2.11,1.35-4.23,2.41-6.35,3.16l-1.13-2.38c4.47-1.69,7.59-3.69,9.38-6-2.07-1.68-4.26-3.19-6.56-4.53l1.56-2.13c2.3,1.35,4.46,2.83,6.46,4.41,1.15-2.02,2.11-4.43,2.89-7.23Z"/>
        <path class="cls-2" d="M276.78,28.66l2.38,1.21c-.3.64-.53,1.11-.7,1.43,2.62-.82,4.83-1.23,6.64-1.23,1.29,0,2.4.33,3.34,1,1.05.77,1.58,1.76,1.58,2.97,0,1.91-1.36,4.26-4.08,7.03-2.02,2.1-4.4,4.11-7.15,6.05l-2.01-1.93c2.36-1.54,4.5-3.2,6.43-5,1.3-1.21,2.28-2.34,2.93-3.38.69-1.08,1.05-1.97,1.07-2.68-.07-.85-.96-1.27-2.68-1.27-2.16,0-4.85.66-8.07,1.97-.69,1.08-1.45,2.17-2.27,3.28l-2.27-1.48c2.07-2.81,3.68-5.47,4.84-7.97Z"/>
        <path class="cls-2" d="M310.34,32.86c1.67,0,2.91.21,3.73.62,1.15.56,1.72,1.29,1.72,2.19,0,2.07-1.43,4.29-4.28,6.66-1.82,1.52-4.11,3.02-6.88,4.49l-1.46-2.38c3.31-1.3,5.8-2.8,7.48-4.49,1.38-1.37,2.07-2.51,2.07-3.44-.04-.34-.21-.57-.53-.7-.39-.12-1.01-.18-1.86-.18-3.44,0-7.1.32-11,.96l-.68-2.79c4.22-.62,8.11-.94,11.68-.94ZM305.6,29.07c3.06,0,5.8.07,8.22.21l-.16,2.75c-1.93-.25-4.62-.37-8.07-.37-2.44,0-4.19.12-5.25.37l-.14-2.83c1.35-.09,3.15-.14,5.39-.14Z"/>
        <path class="cls-2" d="M335.23,29.71c1.45,0,2.65.31,3.61.92,1.13.74,1.7,1.79,1.7,3.14,0,2.16-1.02,4.45-3.05,6.86-1.82,2.19-4.26,4.32-7.32,6.41l-1.82-1.86c2.7-1.77,4.88-3.63,6.56-5.57,1.77-2.02,2.68-3.96,2.71-5.84-.12-.89-1.02-1.33-2.71-1.33-1.56,0-3.41.27-5.53.82-1.93.5-3.55,1.07-4.86,1.72l-.98-2.73c1.48-.66,3.19-1.22,5.12-1.68,2.37-.57,4.56-.86,6.56-.86ZM339.95,27.95l.82,1.64-1.52.47c-.21-.61-.44-1.18-.68-1.72l1.39-.39ZM342.14,27.72c.3.52.6,1.11.9,1.76l-1.54.43c-.14-.46-.38-1.05-.72-1.8l1.37-.39Z"/>
      </g>
      <g>
        <path class="cls-3" d="M706.18,212.34c22.41-10.87,44.55-29.74,41.98-57.19,19.34-1.77,25.6-2.75,45.12-7.3,7.64-4.51,14.79-10.18,21.36-15.97.58-1.18-.09-1.14-.08-1.19,1.08-7.53-10.28-37.55-22.72-48.07-8.12-6.86-16.83-8.95-16.88-9.93,17.91-20.59,11.15-48.28.18-70.31-25.28-5.13-56.48-3.53-70.72,21.16-14.39-25.08-43.48-25.21-68.78-21.4-7.76,15.58-14.7,37.36-9.3,54.49,1.92,6.1,6.11,11.02,8.56,16.81-25.69,5.79-35.85,32.01-40.93,55.43-.14,4.18,12.44,13.08,22.02,18.91,11.54,2.51,42.85,10.46,47.07,6.59-2.66,24.7,20.28,47.99,43.11,57.97Z"/>
        <path class="cls-1" d="M616.11,147.84s28.83,20.21,53.92,3c-23.01,0-23.01-3-23.01-3h-30.91Z"/>
        <path class="cls-1" d="M793.28,147.84s-29.24,20.21-54.34,3c23.01,0,23.01-3,23.01-3h31.33Z"/>
        <g>
          <polygon class="cls-1" points="743.51 60.86 705.96 43.08 705.96 39.44 704.46 37.94 702.96 39.44 702.96 43.08 665.41 60.86 704.46 60.86 743.51 60.86"/>
          <path class="cls-1" d="M761.19,71.33c-7.01-6.03-16.99-7.41-16.99-7.41h-79.48s-9.98,1.38-16.99,7.41h113.46Z"/>
          <path class="cls-1" d="M741.62,106.45s-.04-.05-.05-.08c-.08-.11-.15-.21-.23-.32-.02-.02-.04-.05-.06-.07-.09-.11-.18-.23-.27-.34-.01-.01-.02-.03-.03-.04-.06-.07-.12-.15-.19-.22-.01-.01-.02-.03-.04-.04-.14-.17-.3-.34-.45-.51,0,0-.01-.01-.02-.02-.47-.51-1.01-1.02-1.62-1.53-.09-.08-.18-.15-.28-.23-.03-.02-.05-.04-.08-.06-.49-.39-1.03-.78-1.62-1.17-.11-.07-.22-.14-.33-.21-1.26-.8-2.73-1.58-4.45-2.31-.59.25-1.15.51-1.68.77-10.77,5.27-10.02,12.27-10.02,12.27v14.06c-.03.24,0,.37,0,.37v19.05h4.7v-19.11c0-.56.29-1.06.75-1.51,0,0,0,0,.01-.01.42-.41.99-.77,1.61-1.08.05-.03.11-.05.16-.08.1-.05.2-.1.3-.14,0,0,.02,0,.03-.01.2-.09.4-.18.6-.26.02,0,.04-.02.07-.03.08-.03.17-.07.25-.1.08-.03.17-.06.25-.09.13-.05.26-.09.39-.13.09-.03.18-.06.26-.09.22-.07.43-.14.63-.19.04-.01.08-.02.12-.03.14-.04.28-.08.41-.11.04-.01.08-.02.11-.03.08-.02.16-.04.23-.06.04,0,.07-.02.11-.03.43-.11.7-.16.7-.16,0,0,7,1.41,7,4.16v19.11h4.7v-19.05s.03-.13,0-.37v-14.06s.28-2.62-1.97-5.87ZM738.73,121.64c-.05-.02-.1-.05-.16-.07,0,0,0,0,0,0-.05-.02-.1-.05-.16-.07,0,0,0,0-.01,0-.05-.02-.1-.05-.15-.07,0,0-.01,0-.02,0-.05-.02-.1-.04-.15-.07,0,0-.02,0-.02-.01-.05-.02-.1-.04-.15-.07,0,0-.02,0-.03-.01-.05-.02-.1-.04-.15-.06-.01,0-.02,0-.03-.01-.05-.02-.1-.04-.15-.06-.01,0-.03-.01-.04-.02-.05-.02-.1-.04-.15-.06-.01,0-.03-.01-.04-.02-.05-.02-.1-.04-.15-.06-.02,0-.03-.01-.05-.02-.05-.02-.1-.04-.15-.06-.02,0-.03-.01-.05-.02-.05-.02-.1-.04-.15-.06-.02,0-.04-.01-.06-.02-.05-.02-.1-.04-.15-.05-.02,0-.04-.02-.06-.02-.05-.02-.1-.04-.14-.05-.02,0-.04-.02-.07-.02-.05-.02-.1-.03-.14-.05-.02,0-.05-.02-.07-.03-.05-.02-.09-.03-.14-.05-.03,0-.05-.02-.08-.03-.05-.02-.09-.03-.14-.05-.03,0-.05-.02-.08-.03-.05-.02-.09-.03-.14-.05-.03,0-.06-.02-.09-.03-.05-.02-.09-.03-.14-.05-.03-.01-.06-.02-.09-.03-.05-.01-.09-.03-.14-.04-.03-.01-.07-.02-.1-.03-.05-.01-.09-.03-.14-.04-.03-.01-.07-.02-.1-.03-.05-.01-.09-.03-.14-.04-.04-.01-.07-.02-.11-.03-.05-.01-.09-.03-.14-.04-.04-.01-.08-.02-.11-.03-.05-.01-.09-.03-.14-.04-.04-.01-.08-.02-.12-.04-.04-.01-.09-.03-.13-.04-.04-.01-.09-.03-.13-.04-.04-.01-.08-.02-.13-.04-.05-.01-.1-.03-.14-.04-.04-.01-.08-.02-.12-.03-.05-.01-.1-.03-.16-.04-.04-.01-.07-.02-.11-.03-.06-.02-.12-.03-.18-.05-.03,0-.06-.02-.09-.02-.07-.02-.14-.04-.21-.05-.02,0-.05-.01-.07-.02-.09-.02-.17-.04-.26-.07,0,0-.01,0-.02,0-.1-.02-.19-.05-.29-.07-.1.02-.19.05-.29.07-.01,0-.03,0-.04.01-.08.02-.16.04-.24.06-.03,0-.05.01-.08.02-.07.02-.13.03-.2.05-.03,0-.07.02-.1.03-.06.02-.11.03-.17.05-.04.01-.08.02-.12.03-.05.01-.1.03-.15.04-.04.01-.08.02-.13.03-.05.01-.09.03-.14.04-.04.01-.09.02-.13.04-.04.01-.09.02-.13.04-.04.01-.09.03-.13.04-.04.01-.08.02-.12.03-.05.01-.09.03-.14.04-.04.01-.08.02-.11.03-.05.01-.09.03-.14.04-.04.01-.07.02-.11.03-.05.01-.09.03-.14.04-.03.01-.07.02-.1.03-.05.01-.09.03-.14.04-.03.01-.07.02-.1.03-.05.01-.09.03-.14.04-.03.01-.06.02-.09.03-.05.02-.09.03-.14.05-.03,0-.06.02-.09.03-.05.02-.1.03-.14.05-.03,0-.05.02-.08.03-.05.02-.1.03-.14.05-.03,0-.05.02-.08.03-.05.02-.1.03-.14.05-.02,0-.05.02-.07.03-.05.02-.1.03-.14.05-.02,0-.04.02-.07.02-.05.02-.1.04-.14.05-.02,0-.04.02-.06.02-.05.02-.1.04-.15.05-.02,0-.04.01-.06.02-.05.02-.1.04-.15.06-.02,0-.03.01-.05.02-.05.02-.1.04-.15.06-.02,0-.03.01-.05.02-.05.02-.1.04-.15.06-.01,0-.03.01-.04.02-.05.02-.1.04-.15.06-.01,0-.02.01-.04.02-.05.02-.1.04-.15.06-.01,0-.02,0-.03.01-.05.02-.1.04-.15.06,0,0-.02,0-.03.01-.05.02-.1.04-.15.07,0,0-.01,0-.02,0-.05.02-.1.05-.15.07,0,0-.01,0-.02,0-.05.02-.1.05-.16.07,0,0,0,0-.01,0-.05.02-.11.05-.16.07,0,0,0,0,0,0-.05.02-.11.05-.16.08,0,0,0,0,0,0-.05.03-.11.05-.16.08v-9.5c0-4.84,7-7.31,7-7.31,0,0,.75.27,1.76.79,0,0,0,0,.01,0,.41.21.86.47,1.32.77.05.03.1.07.16.1.1.07.21.14.31.21.07.05.13.1.2.14.04.03.07.06.11.08.08.06.15.12.23.18.02.02.04.03.06.05.2.16.41.34.6.52,0,0,.02.01.02.02,1.23,1.14,2.21,2.62,2.21,4.43v9.5c-.05-.03-.1-.05-.16-.08,0,0,0,0,0,0Z"/>
          <path class="cls-1" d="M755.96,99.28c-10.64,5.33-9.93,13.04-9.93,13.04v14.06c-.02.24,0,.37,0,.37v19.05h3.99v-19.11c0-2.75,5.94-4.16,5.94-4.16,0,0,5.94,1.41,5.94,4.16v19.11h3.99v-19.05s.02-.13,0-.37v-14.06s.7-7.7-9.93-13.04ZM761.9,121.72c-1.42-.82-3.34-1.64-5.94-2.38-2.6.74-4.52,1.56-5.94,2.38v-9.5c0-4.84,5.94-7.31,5.94-7.31,0,0,5.94,2.47,5.94,7.31v9.5Z"/>
          <path class="cls-1" d="M774.53,99.28c-6.33,5.33-5.91,13.04-5.91,13.04v14.06c-.01.24,0,.37,0,.37v19.05h2.37v-19.11c0-2.75,3.53-4.16,3.53-4.16,0,0,3.53,1.41,3.53,4.16v19.11h2.37v-19.05s.01-.13,0-.37v-14.06s.42-7.7-5.91-13.04ZM778.06,121.72c-.84-.82-1.99-1.64-3.53-2.38-1.55.74-2.69,1.56-3.53,2.38v-9.5c0-4.84,3.53-7.31,3.53-7.31,0,0,3.53,2.47,3.53,7.31v9.5Z"/>
          <polygon class="cls-1" points="704.65 75.38 704.27 75.38 649.8 75.38 649.8 85.55 658.03 85.55 658.03 79.14 667.32 79.14 667.32 85.55 672.58 85.55 672.58 79.14 681.87 79.14 681.87 85.55 687.14 85.55 687.14 79.14 696.42 79.14 696.42 85.55 704.27 85.55 704.65 85.55 712.5 85.55 712.5 79.14 721.79 79.14 721.79 85.55 727.06 85.55 727.06 79.14 736.34 79.14 736.34 85.55 741.61 85.55 741.61 79.14 750.89 79.14 750.89 85.55 759.12 85.55 759.12 75.38 704.65 75.38"/>
          <path class="cls-1" d="M707.43,97.37h77.57c-11.59-7.24-26.77-7.97-26.77-7.97h-107.53s-15.18.72-26.77,7.97h83.5Z"/>
          <path class="cls-1" d="M707.46,147.84h-85.68c11.89,2.72,27.47,3,27.47,3h110.34s15.57-.27,27.47-3h-79.6Z"/>
          <path class="cls-1" d="M678.71,100.05c-.53-.26-1.09-.52-1.68-.77-1.81.77-3.33,1.59-4.63,2.43-.05.03-.1.07-.16.1-.94.62-1.76,1.25-2.46,1.88-.01.01-.02.02-.04.03-.09.08-.18.17-.27.25-.15.14-.3.28-.44.42,0,0,0,0,0,0-.09.09-.17.18-.26.26-.32.33-.61.66-.87.99-.09.11-.17.22-.25.33-.16.2-.3.41-.44.61-.04.06-.08.11-.11.17-.02.02-.03.05-.05.07-.07.1-.13.2-.19.3-.04.07-.08.14-.12.21-.15.27-.29.53-.42.78-.04.07-.07.15-.1.22-.06.13-.11.26-.17.38,0,.01-.01.03-.02.04-.86,2.09-.7,3.56-.7,3.56v14.06c-.03.24,0,.37,0,.37v19.05h4.7v-19.11c0-2.75,7-4.16,7-4.16,0,0,.27.05.7.16.03,0,.07.02.11.03.07.02.15.04.23.06.04,0,.08.02.11.03.13.04.28.08.43.12.03,0,.07.02.11.03.22.06.44.13.68.21.05.02.11.04.16.05.17.06.35.12.53.19.05.02.1.04.14.05.42.16.85.34,1.27.54.06.03.11.05.16.08,1.3.66,2.37,1.53,2.37,2.61v19.11h4.7v-19.05s.03-.13,0-.37v-14.06s.75-7-10.02-12.27ZM683.72,121.56s0,0,0,0c-.05-.02-.1-.05-.16-.07,0,0,0,0,0,0-.05-.02-.1-.05-.16-.07,0,0-.01,0-.02,0-.05-.02-.1-.05-.15-.07,0,0-.01,0-.02,0-.05-.02-.1-.04-.15-.07,0,0-.02,0-.03-.01-.05-.02-.1-.04-.15-.06-.01,0-.02,0-.03-.01-.05-.02-.1-.04-.15-.06-.01,0-.02,0-.04-.01-.05-.02-.1-.04-.15-.06-.01,0-.03-.01-.04-.02-.05-.02-.1-.04-.15-.06-.02,0-.03-.01-.05-.02-.05-.02-.1-.04-.15-.06-.02,0-.03-.01-.05-.02-.05-.02-.1-.04-.15-.06-.02,0-.04-.01-.06-.02-.05-.02-.1-.04-.15-.05-.02,0-.04-.02-.06-.02-.05-.02-.1-.04-.15-.05-.02,0-.04-.02-.07-.02-.05-.02-.1-.03-.14-.05-.02,0-.05-.02-.07-.03-.05-.02-.1-.03-.14-.05-.03,0-.05-.02-.08-.03-.05-.02-.09-.03-.14-.05-.03,0-.05-.02-.08-.03-.05-.02-.09-.03-.14-.05-.03,0-.06-.02-.09-.03-.05-.02-.09-.03-.14-.05-.03,0-.06-.02-.09-.03-.05-.01-.09-.03-.14-.04-.03-.01-.07-.02-.1-.03-.05-.01-.09-.03-.14-.04-.03-.01-.07-.02-.1-.03-.05-.01-.09-.03-.14-.04-.04-.01-.07-.02-.11-.03-.05-.01-.09-.03-.14-.04-.04-.01-.07-.02-.11-.03-.05-.01-.09-.03-.14-.04-.04-.01-.08-.02-.12-.03-.04-.01-.09-.03-.13-.04-.04-.01-.09-.02-.13-.04-.04-.01-.09-.02-.13-.04-.05-.01-.09-.03-.14-.04-.04-.01-.08-.02-.13-.03-.05-.01-.1-.03-.15-.04-.04-.01-.08-.02-.12-.03-.06-.02-.11-.03-.17-.05-.03,0-.07-.02-.1-.03-.07-.02-.13-.03-.2-.05-.03,0-.05-.01-.08-.02-.08-.02-.16-.04-.24-.06-.01,0-.03,0-.04-.01-.1-.02-.19-.05-.29-.07-.1.02-.19.05-.29.07,0,0-.01,0-.02,0-.09.02-.18.04-.26.07-.02,0-.05.01-.07.02-.07.02-.14.04-.21.05-.03,0-.06.02-.09.02-.06.02-.12.03-.18.05-.04,0-.07.02-.11.03-.05.01-.1.03-.16.04-.04.01-.08.02-.12.03-.05.01-.1.03-.14.04-.04.01-.08.02-.13.04-.04.01-.09.03-.13.04-.04.01-.09.02-.13.04-.04.01-.08.02-.12.04-.05.01-.09.03-.13.04-.04.01-.08.02-.12.03-.05.01-.09.03-.14.04-.04.01-.07.02-.11.03-.05.01-.09.03-.14.04-.03.01-.07.02-.1.03-.05.01-.09.03-.14.04-.03.01-.07.02-.1.03-.05.01-.09.03-.14.04-.03.01-.06.02-.09.03-.05.02-.09.03-.14.05-.03,0-.06.02-.09.03-.05.02-.09.03-.14.05-.03,0-.05.02-.08.03-.05.02-.1.03-.14.05-.03,0-.05.02-.08.03-.05.02-.1.03-.14.05-.02,0-.05.02-.07.03-.05.02-.1.03-.14.05-.02,0-.04.02-.07.02-.05.02-.1.04-.14.05-.02,0-.04.02-.06.02-.05.02-.1.04-.15.05-.02,0-.04.01-.06.02-.05.02-.1.04-.15.06-.02,0-.04.01-.05.02-.05.02-.1.04-.15.06-.02,0-.03.01-.05.02-.05.02-.1.04-.15.06-.01,0-.03.01-.04.02-.05.02-.1.04-.15.06-.01,0-.03.01-.04.02-.05.02-.1.04-.15.06-.01,0-.02,0-.03.01-.05.02-.1.04-.15.06,0,0-.02,0-.03.01-.05.02-.1.04-.15.07,0,0-.02,0-.02.01-.05.02-.1.04-.15.07,0,0-.01,0-.02,0-.05.02-.1.05-.15.07,0,0,0,0-.01,0-.05.02-.1.05-.15.07,0,0,0,0,0,0-.05.02-.1.05-.16.07,0,0,0,0,0,0-.05.03-.11.05-.16.08v-9.5c0-2.67,2.13-4.61,4.03-5.82.42-.26.82-.49,1.19-.69,0,0,0,0,.01,0,.09-.05.19-.1.28-.14h0c.87-.43,1.48-.65,1.48-.65,0,0,7,2.47,7,7.31v9.5c-.1-.05-.21-.1-.32-.15Z"/>
          <path class="cls-1" d="M704.46,99.28c-12.53,5.33-11.7,13.04-11.7,13.04v14.06c-.03.24,0,.37,0,.37v19.05h4.7v-19.11c0-2.75,7-4.16,7-4.16,0,0,7,1.41,7,4.16v19.11h4.7v-19.05s.03-.13,0-.37v-14.06s.83-7.7-11.7-13.04ZM711.46,121.72c-1.67-.82-3.94-1.64-7-2.38-3.06.74-5.33,1.56-7,2.38v-9.5c0-4.84,7-7.31,7-7.31,0,0,7,2.47,7,7.31v9.5Z"/>
          <path class="cls-1" d="M652.97,99.28c-10.64,5.33-9.93,13.04-9.93,13.04v14.06c-.02.24,0,.37,0,.37v19.05h3.99v-19.11c0-2.75,5.94-4.16,5.94-4.16,0,0,5.94,1.41,5.94,4.16v19.11h3.99v-19.05s.02-.13,0-.37v-14.06s.7-7.7-9.93-13.04ZM658.91,121.72c-1.42-.82-3.34-1.64-5.94-2.38-2.6.74-4.52,1.56-5.94,2.38v-9.5c0-4.84,5.94-7.31,5.94-7.31,0,0,5.94,2.47,5.94,7.31v9.5Z"/>
          <path class="cls-1" d="M634.4,99.28c-6.33,5.33-5.91,13.04-5.91,13.04v14.06c-.01.24,0,.37,0,.37v19.05h2.37v-19.11c0-2.75,3.53-4.16,3.53-4.16,0,0,3.53,1.41,3.53,4.16v19.11h2.37v-19.05s.01-.13,0-.37v-14.06s.42-7.7-5.91-13.04ZM637.93,121.72c-.84-.82-1.99-1.64-3.53-2.38-1.55.74-2.69,1.56-3.53,2.38v-9.5c0-4.84,3.53-7.31,3.53-7.31,0,0,3.53,2.47,3.53,7.31v9.5Z"/>
          <path class="cls-1" d="M621.79,145.8h.86v-19.11c0-2.75,1.28-4.16,1.28-4.16,0,0,1.28,1.41,1.28,4.16v19.11h.86v-19.05s0-.13,0-.37v-14.06s.15-7.7-2.14-13.04c-1.14,2.65-2.09,15.72-2.14,13.04v14.06c0,.24,0,.37,0,.37v19.05ZM622.65,112.22c0-4.84,1.28-7.31,1.28-7.31,0,0,1.28,2.47,1.28,7.31v9.5c-.31-.82-.72-1.64-1.28-2.38-.56.74-.97,1.56-1.28,2.38v-9.5Z"/>
          <path class="cls-1" d="M784.92,99.28c-2.29,5.33-2.14,13.04-2.14,13.04v14.06c0,.24,0,.37,0,.37v19.05h.86v-19.11c0-2.75,1.28-4.16,1.28-4.16,0,0,1.28,1.41,1.28,4.16v19.11h.86v-19.05s0-.13,0-.37v-14.06s.15-7.7-2.14-13.04ZM786.2,121.72c-.31-.82-.72-1.64-1.28-2.38-.56.74-.97,1.56-1.28,2.38v-9.5c0-4.84,1.28-7.31,1.28-7.31,0,0,1.28,2.47,1.28,7.31v9.5Z"/>
        </g>
      </g>
    </g>
  </g>
</svg>