<?xml version="1.0" encoding="utf-8"?>
<!DOCTYPE svg PUBLIC "-//W3C//DTD SVG 1.0//EN" "http://www.w3.org/TR/2001/REC-SVG-20010904/DTD/svg10.dtd">
<svg version="1.0" xmlns="http://www.w3.org/2000/svg" width="8000px" height="2400px" viewBox="0 0 8000 2400" preserveAspectRatio="xMidYMid meet">
 <g fill="#fe5a73">
  <path d="M6312 2281.40 c-0.60 -0.60 -4.20 -1.80 -7.80 -2.40 -12 -2 -23 -9.20 -40.80 -26.80 -30.60 -29.60 -33.40 -41.40 -20.80 -83.20 25.60 -84.60 44 -192.40 51.40 -298.80 1.60 -24.60 2.60 -30.60 7.20 -39.60 9.40 -19.20 27.40 -28.80 57 -30.20 35 -1.60 51 4.40 76.40 29.40 27.60 26.80 29.60 33 25.60 83.40 -6.20 80.40 -19.40 170.40 -36.40 246.80 -3.40 14.80 -6.40 29.20 -7 32 -0.60 2.80 -1.60 6.80 -2.20 9 -0.80 2.20 -1.60 5 -1.80 6 -7.60 31.80 -13.20 45 -24 56.80 -11.20 12.40 -23.60 16.80 -51.80 17.80 -13.20 0.40 -24.40 0.40 -25 -0.20z m27.40 -51.40 c13.60 -6 16.20 -11.80 29.80 -66 21.40 -84.60 42.60 -230.20 43.40 -297.40 l0.40 -24.20 -6 -6.20 c-7.80 -8.40 -21.60 -12.20 -44 -12.20 -14.80 0 -19.80 0.80 -27 4.60 -14.20 7.20 -16.20 11.40 -18.20 39.60 -4.60 64.60 -13.40 131.60 -25 189.80 -3.80 19.20 -7.40 37.20 -8 40 -0.60 2.80 -1.80 7.80 -2.80 11 -1 3.40 -2.20 8.20 -2.80 11 -0.60 2.80 -1.40 7 -2 9.60 -0.80 2.40 -1.60 6 -2 8 -1.80 7.80 -5.40 21.80 -7 26.40 -13.60 40 -12.40 53.60 5.60 63.60 15.40 8.80 48.40 9.80 65.60 2.40z"/>
  <path d="M6628.60 2279.20 c-12.80 -4 -20.20 -9.60 -37.20 -26.80 -18.60 -19.20 -23 -28.40 -25.60 -53 -10 -98 -30.60 -213.80 -54.80 -306.80 -5 -19 -9 -38.60 -9 -43.60 0 -18.20 10.60 -33 30.40 -42.20 12 -5.40 14 -5.80 39.60 -5.80 36.80 0 41 1.60 67.60 27.80 11.80 11.40 22.80 24 25.20 29.20 12.80 25.40 47.80 186.80 58.20 268 0.80 5 1.60 11.20 2 14 0.60 2.80 1.40 9 2 14 0.60 5 1.40 12.20 2 16 3.40 26.20 4 35.20 4 53 0 18.40 -0.40 20.80 -5.80 30.40 -11.20 20.40 -30.80 28.60 -67 28.40 -13 0 -26.80 -1.20 -31.60 -2.60z m36.60 -48.20 c5.60 -1.60 12.20 -5.20 15 -8.20 4.60 -4.80 4.80 -6.40 4.60 -28.40 -0.40 -54 -24.60 -199 -49.80 -297.40 -15 -59.20 -17.20 -63.60 -34.80 -70.40 -12.60 -5 -41.80 -4.80 -54.80 0.20 -12 4.60 -19.40 13.20 -19.40 22.80 0 4 4 23 9 42.40 16.80 66.60 31.40 137.60 40 194.80 0.60 4.20 1.40 9.60 2 12 0.40 2.40 1.40 8.80 2 14.20 0.60 5.60 1.60 11.80 2 14 0.40 2.20 1.40 9 2 15 1.20 12.20 2.80 25.80 4 35 0.40 3.40 1.40 11.80 2 19 2.20 23.60 7.20 32 21 36.20 9 2.60 44.60 2 55.20 -1.20z"/>
  <path d="M7425 2279.20 c-16.80 -4.20 -25.20 -10 -45.40 -30.80 -16.20 -16.60 -19.80 -21.60 -22.40 -30.40 -4.40 -14.60 -4.20 -17.80 2.80 -42 29.20 -101 46.80 -202.20 53.80 -307.40 1.40 -22.60 2.60 -28.20 7 -37.40 10 -20.40 31.20 -31.20 61.20 -31.20 33.60 0 47.60 5.80 72.20 29.40 24 23 26.60 29 26.80 58.60 0 21.60 -2.20 71.80 -4 85 -0.40 3.40 -1.20 11.40 -1.80 18 -0.60 6.60 -1.60 13.80 -2 16 -0.40 2.20 -1.40 9.40 -2.20 16 -6.80 58.20 -40.40 202.20 -52.80 226.80 -5.80 11.20 -17 21.80 -28.20 26.80 -11.40 5.20 -49.60 6.80 -65 2.60z m34.20 -49.20 c11 -4.80 15.20 -12.20 23.80 -42.80 30 -106.40 47.60 -212 50.40 -302.20 1 -37.60 1 -38 -3.60 -44.80 -7.60 -11 -17.80 -15 -40.40 -15.80 -24.20 -1 -35.40 1.80 -43.40 10.80 -6.60 7.60 -7 9.60 -10 48.80 -2.60 35.20 -10.80 102.60 -16.20 134 -2.20 12.60 -4.60 25.80 -5.20 29 -0.40 3.40 -2.80 14.60 -5 25 -2 10.40 -4.40 21.20 -4.80 24 -0.60 2.80 -1.80 7.80 -2.80 11 -1 3.40 -2.20 8.20 -2.80 11 -0.60 2.80 -1.40 7 -2 9.60 -2.40 9 -3.40 13.40 -4 15.40 -0.40 1.20 -1.20 4.80 -2 8 -0.80 3.40 -4.20 15.80 -7.60 27.80 -8.40 30.20 -6.20 40.80 10.60 49.20 16.20 8.40 48.40 9.40 65 2z"/>
  <path d="M7746.60 2279.20 c-12.80 -4.20 -20.40 -9.60 -36.80 -26.60 -22.60 -23.20 -23 -24.20 -30.80 -86.20 -16.40 -129.40 -31.80 -209 -57 -296.40 -7 -24.20 -7.40 -32 -2.20 -43 7.60 -16.60 24.60 -25.60 48.20 -25.80 14.60 -0.20 15 -0.40 21.80 -7.80 3.80 -4.20 11.40 -10 17 -12.80 8.40 -4.20 12 -4.80 23 -4.20 7.20 0.40 16.60 2.40 20.60 4.40 7 3.40 7.40 3.40 12.80 -0.20 7.80 -5 40.60 -5.20 50.80 -0.20 7.60 3.60 37.80 33.60 42.20 41.60 3.60 6.80 5.20 72.60 1.80 85.60 -4.60 18.20 -16.60 27.20 -39.60 29.60 -6.80 0.80 -12.40 2.20 -12.40 3.20 0 1 1.80 8.80 3.80 17.20 4.60 18 13.60 61.40 17.40 84.20 0.60 3.60 1.60 8.60 2 11 2.60 12 13.20 91.80 17.60 131.20 5 44.60 5 53 -0.40 66.20 -3.80 9.40 -12.20 17.20 -25.80 23.80 -13 6.60 -14.60 6.80 -39.60 7.40 -18 0.40 -28.60 -0.20 -34.40 -2.20z m34 -47.40 c11.60 -3.20 21 -12.40 22.40 -22.40 1.40 -9 -5.80 -77.60 -14.20 -135.40 -11.40 -79.60 -29.40 -162.60 -36 -167.40 -2.40 -1.80 -10.80 -2.60 -26.80 -2.60 -21 0 -24.20 -0.40 -30.20 -4.60 -3.80 -2.40 -8.80 -8.40 -11.20 -13.40 -4 -7.60 -4.60 -12 -4.60 -31 0 -26.80 -2 -31 -14.20 -31 -15.40 0 -25.80 7.40 -25.80 18.40 0 2.60 4.40 20.80 10 40.60 21 76.60 41.40 182.40 51 265.60 1.60 14.40 2.80 24.40 5.80 48 2.40 19 3.40 22.40 8.20 27.40 3 3.20 8.80 6.60 12.80 7.60 9.80 2.80 43.60 2.80 52.80 0.20z m-38.40 -353 c3.40 -3.20 3.80 -6.60 3.80 -38 0 -33.80 -0.20 -34.80 -4.40 -37.60 -10.40 -6.40 -31.80 -5.20 -37 2 -1.80 2.60 -2.60 12.80 -2.60 35.80 0 41.60 1.20 43.60 25.80 42 6.40 -0.40 12.20 -2.20 14.40 -4.20z m66.20 -0.80 c3.20 -3.80 3.60 -8.80 3.60 -36.80 0 -23.20 -0.80 -33.40 -2.60 -36 -5.60 -7.80 -32 -8.40 -38.80 -0.80 -3 3.40 -3.80 8.60 -4.20 32.20 -1 36 0 40.80 8.20 44.60 9.60 4.40 29.20 2.40 33.80 -3.20z"/>
  <path d="M6925 2278.80 c-2.20 -0.60 -7.60 -2 -12 -3.20 -6 -1.40 -12.60 -6.60 -26.40 -20 -24.20 -23.80 -27.40 -30.80 -27.40 -60.60 0 -18.60 0.60 -23.60 4.40 -32 5.60 -12.20 11 -18.20 21.40 -23.60 7.20 -3.80 12.80 -4.40 55 -5.60 25.80 -0.80 52.40 -2.40 59 -3.80 14.80 -2.80 41.20 -11.20 46 -14.80 3.20 -2.20 1.40 -2.80 -13.20 -3.60 -20.20 -1.40 -30 -5.20 -41 -15.80 l-8.20 -8.20 -4.40 6.20 c-2.40 3.20 -9.40 8.40 -15.80 11.60 -10.60 5.20 -13 5.60 -36.40 5.60 -30.20 0 -34.40 -1.80 -58 -24.20 -18 -17.20 -23.40 -26.80 -25 -43.80 -2.40 -28.60 -7.20 -105.40 -7.20 -120.20 -0.20 -19.40 3.80 -30.60 14.60 -40 11 -9.60 19.60 -11.80 45.60 -11.80 26.60 0.20 32.80 2.20 46.80 15 l9 8.40 6.80 -7.20 c10.40 -11 23.20 -15.80 44.60 -16.80 28 -1.40 37 2 58.40 22 19.20 17.80 23.60 23.20 26.40 33.60 1.40 5 9 94.80 10 119.60 0 0.80 1.20 -0.40 2.60 -2.60 1.60 -2.80 2.80 -23.40 3.40 -71 1.20 -75 1.40 -75.60 15.60 -88.40 10.60 -9.60 24.40 -13.60 46.60 -13.60 28.20 0 35.20 3.20 59 26.80 16.40 16.60 20.60 21.80 22.60 29.40 1.80 6.80 2.20 26.60 1.60 78 -0.60 37.80 -1.40 71 -2 73.80 -0.60 2.80 -1.60 7.80 -2.20 11 -3.60 23 -20.20 65.20 -33.40 84.40 -15.60 22.80 -42.40 46.80 -70.80 63.20 -12.60 7.40 -52 23.60 -64 26.20 -1 0.40 -5.60 1.60 -10 2.80 -12 3.40 -51.80 9.80 -69 11.20 -26.20 1.80 -68.80 3 -73 2z m73 -51.80 c92.60 -14 152.80 -51.40 183 -113.80 18 -37 23.80 -78 22.60 -159.20 -0.60 -47.80 -1.40 -50.60 -14.20 -57.40 -8 -4 -34.80 -4.60 -46 -0.80 -14.20 4.80 -14.20 5.40 -15.60 77.20 -1.20 70.80 -2 75.40 -15.20 103 -10.40 21.60 -33.20 44 -57.80 56.60 -10 5.20 -23.20 10.60 -29 12.20 -6 1.60 -12.20 3.40 -13.80 4 -9.60 3.60 -43.60 7.40 -74 8.40 -19.20 0.60 -38 2 -41.60 3.20 -9.60 3 -14.20 14 -14.40 34 0 19.60 4.20 31 12.80 35 8 3.60 72.80 2.20 103.20 -2.40z m-70 -166.80 c13 -6 13 -6.60 7.40 -82.40 -5.40 -73 -5.80 -74.80 -17.20 -80.80 -7.40 -3.80 -34.60 -4.20 -45 -0.60 -4.40 1.40 -9.60 5 -11.80 8 l-4.20 5.40 4.60 68.20 c2.40 37.60 5.20 70.40 6.20 73 2.40 6.40 10.60 11.40 20.80 13.20 11.60 1.80 31 0 39.20 -4z m114 0 c12.40 -5.80 12.40 -6 7 -80.40 -5.60 -73.60 -6.40 -78.20 -18 -83 -8.20 -3.40 -36.20 -3.80 -44.40 -0.60 -12.40 4.60 -14.60 8.80 -14.60 27.60 0.20 9.40 1.80 41 3.80 70.20 4 60.20 5.20 64.40 17.80 67.80 16.60 4.60 36.60 4 48.40 -1.60z"/>
  <path d="M1522.20 1753.80 c-3.60 -1.20 -10 -4.20 -14 -6.80 -12.20 -7.60 -66.60 -65.80 -71.60 -76.60 l-4.60 -9.40 0.60 -323 0.40 -323 6 -10.80 c3.60 -6.40 9.60 -13.60 15 -17.40 18.60 -13.60 6.20 -13 279 -12.40 l246 0.60 10 4.80 c13.60 6.60 74.40 67.20 80.80 80.60 2.40 5.20 5.40 15.80 6.40 23.40 1.20 8.20 1.80 107 1.40 249.40 l-0.60 235.80 -5.20 11 c-7.20 15.40 -14.20 23 -27.40 29.40 l-11.40 5.60 -157 1 -157 1 -1 51 -1 51 -5.40 9.40 c-3.20 5 -9 12 -13 15.60 -13.80 11.20 -19.80 12 -98.40 11.80 -39.20 0 -74.20 -1 -78 -2z m99 -96.60 c2.20 -3.20 2.80 -16 2.80 -69.60 l0 -65.60 170 0 c185.60 0 181 0.20 185.60 -11.20 1.80 -4.40 2.40 -64 2 -245.20 l-0.60 -239.60 -5.60 -5.40 -5.40 -5.60 -238.20 -0.60 c-161.60 -0.20 -240.80 0.20 -246 1.60 -15 4 -13.80 -22 -13.80 325.60 0 294.40 0.20 312 3.60 314.80 1.80 1.80 4.80 3.60 6.40 4.20 1.60 0.60 33 1 69.60 0.80 63.60 -0.40 66.80 -0.60 69.60 -4.20z"/>
  <path d="M1624 1268 l0 -112 104 0 104 0 0 112 0 112 -104 0 -104 0 0 -112z m168 27 l0 -43 -37 0 -37 0 0 43 0 43 37 0 37 0 0 -43z"/>
  <path d="M241.80 1747.20 c-13.20 -4.60 -20.60 -10.60 -52 -42.60 -26.80 -27 -31.60 -33 -34.60 -42 -3 -9 -3.40 -18.60 -2.80 -78 l0.60 -67.60 6.20 -11 c7.40 -13 20.40 -22.80 34.80 -25.80 5.60 -1.20 22.80 -2.20 38 -2.20 l27.80 0 0.60 -223.40 0.60 -223.60 4.60 -10.20 c2.60 -5.60 8 -13.60 12.20 -17.60 l7.60 -7.60 -9.20 -9.20 c-14.60 -14.60 -15.20 -18.60 -15.20 -92.40 0 -60 0.20 -63.40 4.20 -72.20 5.20 -11 15.40 -21.60 26 -27 7.20 -3.60 13.40 -3.80 84.80 -4.40 68.40 -0.40 78 -0.20 86 2.80 11.80 4.40 72.60 64 81.20 79.40 l5.80 10.40 0.60 62.80 c0.80 73.80 -0.20 78.80 -15.60 94.40 l-9.20 9.20 9.60 10.40 c16.80 18.40 15.60 -8.20 15.60 337.20 0 346.20 1.20 320 -15.80 337 -16.60 16.60 -11 16 -157 16 -99.60 -0.20 -129.80 -0.80 -135.40 -2.80z m209.60 -95.80 c3.40 -3.40 3.60 -18.80 4.20 -307.20 l0.40 -303.60 -4.20 -5.40 -4 -5.20 -69.80 0 -69.80 0 -3 4.40 c-2.80 4 -3.20 30.60 -3.20 245 l0 240.60 -50.80 0 -51 0 -4 5.20 c-4 5.20 -4.20 7.80 -4.20 62.20 0 36.40 0.80 58.20 2.20 60.80 1.20 2.20 4 4.80 6.40 5.80 2.40 1 58.20 1.60 125.80 1.40 113.60 -0.40 121.60 -0.60 125 -4z m-0.20 -693.60 c3.60 -4 3.80 -8 3.80 -62 0 -52.60 -0.40 -58 -3.60 -61.20 -3.20 -3.40 -9 -3.60 -72.20 -3.60 -64.80 0 -69 0.20 -73 3.80 -4 3.80 -4.20 5.40 -4.20 61.60 0 55 0.20 57.80 4 61.60 3.80 3.80 6.60 4 72.60 4 67.40 0 68.80 0 72.60 -4.20z"/>
  <path d="M3052 1627.40 c-14.60 -4 -21.20 -9.20 -54.20 -42.80 -24.80 -25.20 -32 -33.60 -35 -41.60 -3.60 -9.60 -3.80 -19 -3.80 -268.20 l0 -258.20 7 -13.80 c8.40 -16.20 22.20 -27.40 38.60 -30.80 7.20 -1.40 89.80 -2 263.40 -1.60 l253 0.60 10 4.60 c7.20 3.40 19.60 14.20 45.40 40 30.60 30.20 36.20 36.80 39.60 46 4 10.60 4 14.80 3.60 271 l-0.60 260.40 -4.40 8.20 c-2.40 4.40 -7.80 11.20 -11.80 14.80 -15 13.20 -14.20 13 -94.80 13 -67 0 -73.80 -0.40 -83 -3.80 -8 -3 -16.60 -10.40 -44.60 -37.80 -22.60 -22.40 -36 -37.40 -39 -43.20 l-4.40 -9.20 -0.60 -143.40 -0.60 -143.60 -44.80 0 -45 0 0 166.60 c0 187.40 0.60 180.40 -14.20 196.40 -4.60 4.80 -12.40 10.80 -17.40 13.40 -9.20 4.60 -10.80 4.60 -81.40 5 -53 0.40 -74.40 -0.20 -81 -2z m96 -97.40 c4 -4 4 -6.60 4 -190 l0 -186 113 0 113 0 0 185.60 c0 164.60 0.40 186 3.20 190 3 4.40 3 4.40 70.60 4.40 55 0 68.20 -0.60 71.40 -2.80 3.80 -2.80 3.80 -7.80 3.80 -252.60 0 -204.40 -0.40 -250.80 -2.60 -256 -5.80 -13.40 10 -12.60 -261.40 -12.60 -268 0 -255.40 -0.60 -260.80 11.20 -1.60 3.60 -2.20 72.40 -2.20 255.80 0 225.20 0.40 251 3.20 253.80 2.60 2.80 12 3.20 72 3.20 66.20 0 69 -0.20 72.80 -4z"/>
  <path d="M4143.20 1626.80 c-5.40 -1.60 -13 -5.20 -17 -7.80 -11.40 -7.20 -63.20 -61 -68.40 -71 l-4.80 -9 0 -356 0 -356 4.40 -8 c5.60 -10.60 15.60 -19.80 26.60 -24.80 8.60 -3.80 13 -4.20 81.80 -4.20 51.40 0 75.20 0.80 80.80 2.40 11 3.40 74.40 63.40 82.80 78.40 5.60 10.20 5.60 10.40 6.60 54.20 l1 44 140 1 c140 1 140 1 149 5.40 5.20 2.60 22.80 17.80 41.40 35.60 27.40 26.40 33.40 33.20 39 44.60 l6.60 13.40 0.60 255.80 c0.60 281.40 1 267.40 -11.60 284.60 -4 5.40 -10.20 10.40 -17.60 14 l-11.40 5.60 -66 0.60 c-68.60 0.80 -87.40 -0.60 -97.40 -7.20 -11.40 -7.40 -69.20 -65.80 -73.80 -74.40 l-4.80 -9 -0.60 -145.40 -0.60 -145.60 -46.80 0 -47 0 0 168.60 c0 109.80 -0.80 171 -2 175.80 -3.40 12 -13.80 23.80 -27 30.60 l-11.80 6 -71 0.40 c-59.20 0.40 -72.80 0 -81 -2.60z m95.60 -97.20 c2.80 -4 3.20 -25.40 3.20 -191 l0 -186.60 115 0 115 0 0 189 c0 184.60 0 189 3.80 191 2.60 1.20 28.60 2 71 2 l67.20 0 3 -4.60 c2.80 -4.20 3 -33 2.60 -255.80 -0.60 -248 -0.60 -251.20 -4.60 -255.60 -2.20 -2.40 -6.20 -5.20 -8.80 -6.20 -2.60 -1.20 -81.60 -1.80 -184.40 -1.80 l-179.80 0 0 -84.80 c0 -82.60 0 -84.80 -4.20 -90 l-4 -5.20 -66.80 0 -66.80 0 -4 5.20 -4.20 5.40 0 342.60 c0 340.20 0 342.80 4 346.80 3.80 3.80 6.60 4 71.80 4 68 0 68 0 71 -4.40z"/>
  <path d="M758.20 1625.80 c-14.80 -2.80 -26.20 -11.40 -57.40 -42.60 -21 -20.80 -32.20 -33.60 -36 -41.20 l-5.80 -11 -0.60 -160 c-0.60 -176.20 -0.80 -171.40 11.80 -187.40 7 -8.80 7 -8.60 1.60 -14.20 -2.20 -2.40 -6 -8 -8.40 -12.40 -4.20 -7.60 -4.40 -10.60 -5 -76.20 -0.60 -64.80 -0.40 -68.60 3.60 -79.20 4.40 -12.20 14.40 -23.40 25.80 -29 6.80 -3.40 20.60 -3.60 269.20 -4.20 237.80 -0.40 262.80 -0.20 271.60 2.80 8.20 2.80 16.20 9.20 45.20 36.80 24.80 23.40 37 36.60 41.20 44.20 l6 10.80 0.60 256.80 c0.60 291.40 1.80 268.60 -16 287.40 -5.60 6 -14.20 12.40 -20.20 15 l-10.40 4.80 -254 0.20 c-139.60 0.20 -258 -0.40 -262.80 -1.40z m460.40 -96 c2.80 -1.20 6 -4.40 7.20 -7.20 1.60 -3.40 2.20 -75.60 2.20 -253.80 l0 -249 -4.80 -4.80 c-2.80 -2.80 -8.20 -5.20 -13.40 -6 -4.80 -0.60 -120.20 -1 -256.40 -0.60 l-247.80 0.60 -3.80 4.80 c-3.60 4.40 -3.80 8.60 -3.80 63.20 0 54.60 0.20 58.80 3.80 63.20 l3.80 4.80 184.20 0.60 184.20 0.40 0 29 0 29 -180 0 c-196.80 0 -188.80 -0.40 -193.80 11.40 -1.60 4.20 -2.20 45.40 -1.80 156.20 l0.60 150.80 5.60 4.80 5.60 4.80 251.80 0 c180.20 0 253.20 -0.60 256.60 -2.20z"/>
  <path d="M858 1357 l0 -37 108 0 108 0 0 37 0 37 -108 0 -108 0 0 -37z"/>
  <path d="M2283.80 1625.20 c-15.80 -4.20 -25.80 -12 -57.20 -43.60 -23.80 -24.20 -31.60 -33.20 -36 -42.60 l-5.60 -12 0 -159 c0 -173.80 -0.60 -165.40 12 -183.80 6.60 -9.60 6.80 -9.80 2.80 -13.40 -2 -1.80 -6.20 -8.40 -9.40 -14.60 l-5.40 -11.20 -0.60 -61.40 c-0.60 -51 -0.20 -63.40 2.40 -74 4.20 -16 11.60 -26.80 24.20 -34.60 l9.60 -6 266.20 0 266.20 0 9 4.80 c12.60 6.60 76.60 70.40 82.40 82 l4.60 9.20 0 258 0 258 -4.20 9.20 c-6.20 13.40 -17.40 24.80 -30.40 31.20 l-11.40 5.60 -255 0.40 c-197.80 0.20 -257 -0.20 -264.20 -2.20z m465.60 -98 l5.60 -4.80 0 -251 c0 -243.80 -0.20 -251.20 -3.80 -255.20 -2 -2.20 -7 -5 -11 -6.20 -10.20 -2.80 -498 -2.80 -505.60 0.20 -3 1 -6.20 3.20 -7 4.40 -0.80 1.40 -1.60 29.40 -1.60 62.60 0 48.80 0.60 60.80 2.80 64 2.80 3.80 7.40 3.80 188 4.40 l185.20 0.40 0 29 0 29 -183.20 0.40 -183.20 0.60 -4.80 5.60 -4.80 5.60 0 150.80 c0 106.60 0.60 152.20 2.20 155.80 1.20 2.60 4.20 5.80 6.60 6.80 2.80 1.40 87.20 2.20 256.60 2.20 l252.40 0.20 5.60 -4.80z"/>
  <path d="M2384 1356.60 l0 -37.60 109 0.60 109 0.40 0 37 0 37 -109 0 -109 0 0 -37.40z"/>
  <path d="M4920.60 1625 c-5.80 -1.60 -14 -5 -18 -7.80 -8.60 -5.40 -66.20 -63.40 -71.20 -71.40 -9.40 -15.60 -9.60 -17 -9 -183 0.60 -171.60 0 -163.80 13.20 -180.40 l6.20 -7.80 -4.80 -4.60 c-2.60 -2.40 -6.80 -9 -9.40 -14.60 -4.40 -10 -4.60 -12.40 -5.20 -74 -0.60 -71.20 0.20 -78 12.20 -93.60 3.80 -5 11 -11 17.20 -14.20 l10.80 -5.60 264.20 0.40 264.20 0.60 9 4.80 c5.20 2.60 23.80 19.20 43.40 38.80 26 25.80 35.40 36.40 39 44.20 l4.60 10.20 0 255 c0 245 -0.20 255.40 -3.80 265.80 -4.60 13.20 -18.80 28.40 -32.80 34.80 l-9.40 4.40 -255 0.40 c-214.80 0.40 -256.60 0 -265.40 -2.40z m463.80 -95.20 c9.80 -5.20 9.60 1.80 9.40 -259.20 -0.20 -134 -0.80 -245.80 -1.60 -248.40 -0.60 -2.60 -3.80 -6.80 -6.80 -9 l-5.60 -4.20 -254.80 0 c-242 0 -255 0.20 -258.40 3.60 -3.40 3.20 -3.60 8.60 -3.60 64.40 0 55.80 0.20 61.20 3.60 64.40 3.40 3.40 13.60 3.60 188.40 3.60 l185 0 0 29.60 0 29.40 -179.80 0 c-109.60 0 -182 0.80 -185 2 -2.80 1 -6.60 4.20 -8.60 7.40 -3.40 5 -3.60 14.20 -3.60 153.60 0 81.40 0.60 150.40 1.60 153.40 3.20 12 -11 11.40 264 11.60 176.60 0 252.80 -0.60 255.80 -2.20z"/>
  <path d="M5022 1357 l0 -37 109 -0.40 109 -0.60 0 37.60 0 37.40 -109 0 -109 0 0 -37z"/>
  <path d="M5695.80 1625.20 c-15.80 -4.20 -26 -12 -58.40 -44.80 -22 -22.40 -32.80 -34.80 -36 -41.60 l-4.40 -9.80 0 -350 0 -350 4.40 -8 c6 -11.20 16 -20.80 26.60 -25.80 8.60 -4 12 -4.20 85 -4.20 73.60 0 76.20 0.20 85 4.20 12 5.80 72 64.60 78.40 76.80 4.40 8.60 4.60 11.40 5.20 53.40 l0.60 44.40 145.40 0.60 145.40 0.60 10 5.40 c12.60 6.60 72.80 67 78.80 79 2.20 4.60 5 14.80 6.20 22.40 2.40 17.20 2.60 475.40 0.20 494.60 -3 23.60 -15.40 40.80 -36 50.40 l-9.20 4.20 -259 0.40 c-201 0.20 -261 -0.20 -268.20 -2.20z m472.40 -99 l5.80 -5.80 0 -247.40 c0 -268.60 0.60 -255.40 -11 -260.60 -3.80 -1.80 -51 -2.40 -190 -2.40 l-185 0 0 -85.40 c0 -47.20 -0.80 -86.80 -1.60 -88.20 -1 -1.40 -4.80 -3.40 -8.60 -4.40 -9.40 -2.80 -123.40 -2.60 -131.40 0.20 -4 1.40 -6.80 4.20 -8.20 8.20 -3.20 9.40 -2.80 670.20 0.40 679.60 1.40 3.80 4.60 8 7.40 9.40 4 2 59 2.60 260.60 2.60 l255.80 0 5.80 -5.80z"/>
  <path d="M5788 1272 l0 -118 118 0 118 0 0 118 0 118 -118 0 -118 0 0 -118z m194 27 l0 -51 -50 0 -50 0 0 51 0 51 50 0 50 0 0 -51z"/>
  <path d="M6478.80 1626.20 c-15.40 -3.80 -24.80 -11 -58 -44.20 -24.80 -25 -35.20 -36.80 -38.80 -44.40 l-5 -10.60 0 -348 c0 -319.40 0.20 -348.60 3.40 -355.20 4.80 -10.80 16.60 -23 27.20 -28.20 9.40 -4.60 10 -4.60 84.40 -4.60 69 0 75.80 0.40 85 3.80 8 3 16.40 10.20 41.60 35 17.60 17.20 34.20 35.20 37 40.20 5.40 8.80 5.40 9.80 6.40 54 l1 45 145 1 c133.80 1 145.60 1.20 153 4.60 8.80 4 70.40 63.60 78.20 76 11.20 17.40 11 9.40 10.40 280.60 l-0.60 249.80 -4.60 10 c-6 13 -18.40 25.60 -31.20 31.40 l-10.20 4.60 -259 0.40 c-142.40 0 -261.80 -0.40 -265.20 -1.20z m465.80 -96.60 c2.40 -1.20 5.40 -3.60 6.80 -5.40 2 -2.40 2.40 -59.60 2.60 -252.20 0 -273 0.80 -255.60 -11.40 -260.20 -3.20 -1.20 -76.80 -1.80 -189.80 -1.80 l-184.80 0 0 -85.80 c0 -94.60 0.60 -90.80 -12.60 -93.20 -3.60 -0.80 -34 -1 -67.60 -0.60 -57 0.60 -61.60 0.80 -65.60 4.40 l-4.20 3.80 0 339.60 c0 245.40 0.60 341 2.20 344.60 1.20 2.60 4.20 5.80 6.60 6.80 6.40 3.20 512 3.20 517.80 0z"/>
  <path d="M6568 1272 l0 -118 118 0 118 0 0 118 0 118 -118 0 -118 0 0 -118z m195.60 26.40 l0.40 -50.40 -50.40 0.40 -50.60 0.60 -0.60 48 c-0.20 26.40 0 49 0.60 50.40 0.60 2.20 11.60 2.60 50.40 2.20 l49.60 -0.60 0.60 -50.60z"/>
  <path d="M7257.40 1625.80 c-15.40 -3.60 -24.80 -10.60 -56.60 -42.60 -22.60 -22.60 -33.60 -35.20 -37 -42.20 l-4.80 -10 -0.60 -160 c-0.40 -120.40 0 -162.20 1.80 -168.80 1.40 -4.80 5.60 -12.80 9.20 -17.60 l6.60 -8.80 -4.80 -6.40 c-2.80 -3.60 -6.80 -10.60 -9 -15.40 -3.80 -8.40 -4.20 -13 -4.20 -77.20 l0 -68.20 6 -12 c6.60 -13.20 15.20 -21.20 28.20 -25.60 12.80 -4.60 520.20 -4.40 535.60 0 9 2.80 14.60 7.20 46.20 37.60 28 26.60 37.20 36.80 41.60 45.40 l5.40 11 0.60 255 c0.60 289.40 1.80 267.60 -15.80 287 -6 6.40 -13.80 12.40 -20.20 15.20 l-10.60 4.80 -255 0.40 c-144.80 0 -258.20 -0.60 -262.60 -1.60z m464.80 -99.60 l5.80 -5.80 0 -248.20 c0 -177.60 -0.60 -249.40 -2.20 -252.80 -5 -10.80 7.40 -10.40 -265.80 -10.40 -246.60 0 -253.60 0.20 -257.80 3.80 -4 3.80 -4.20 5.40 -4.20 64.20 0 58.80 0.20 60.40 4.20 64.20 4 3.60 10.40 3.80 188 4.40 l183.80 0.40 0 29 0 29 -180 0 c-196.60 0 -189.60 -0.40 -194 11.20 -1.20 3 -2 64.40 -2 155 l0 150.20 5.80 5.80 5.80 5.80 253.40 0 253.40 0 5.80 -5.80z"/>
  <path d="M7358 1357 l0 -37 108 0 108 0 0 37 0 37 -108 0 -108 0 0 -37z"/>
  <path d="M899 622.20 c-11 -2.80 -17.80 -7.80 -34.40 -24.60 -24.80 -25 -23.60 -20 -31.80 -126 -6.80 -87.20 -7.20 -90.80 -11.40 -93.40 -9.20 -6 -40 -39.60 -44 -48.20 -3.60 -7.40 -4.40 -12.80 -4.40 -31.20 0 -20.60 0.40 -22.80 6 -33.80 6.60 -12.80 17.80 -22.40 29 -24.80 5.80 -1.20 6.80 -2.40 9 -10.80 3 -12 13.80 -23.40 27.80 -29.60 8.80 -4 13.60 -4.60 34.20 -4.80 22.80 0 24.40 0.20 34.60 5.80 5.80 3.40 17 12.80 25 21 l14.40 15.20 88 1 c105.20 1.20 98 -0.40 126.80 28.80 27 27.60 27.20 28.40 27 81.20 -0.20 39.80 -0.60 44.60 -5.40 62.80 -16.80 63.40 -56.80 104.20 -124.40 127.20 -25 8.60 -41 9.80 -54.20 4.20 -5.60 -2.40 -13.60 -8 -18 -12.40 -4.20 -4.20 -8.20 -7.80 -8.80 -7.80 -0.60 0 -0.40 7.40 0.40 16.60 3.60 44.60 1.60 57.20 -11.80 69.80 -10.80 10.40 -23.40 14.40 -46.60 15 -11.60 0.20 -23.60 -0.40 -27 -1.20z m14 -46.40 c6.40 -1.20 13.80 -3.60 16.60 -5.40 10.80 -7 10.80 -6.40 1.20 -121.40 -4.80 -58.20 -8.80 -107.60 -8.80 -109.60 0 -3.20 4.40 -3.40 71.60 -3 l71.40 0.60 0.60 13.60 c0.80 19.60 -3.60 31.80 -16.40 44.40 -10.80 10.80 -28.40 20.40 -48 26 -21 6.20 -28.60 17.40 -26.60 39.40 2 23.40 14.40 37.60 32.40 37.60 12 0 50.80 -14.20 69.20 -25.20 23.60 -14.20 43.20 -35.40 54.60 -59.20 13.60 -28.40 15.60 -38.60 16.60 -85 1 -38.40 0.80 -40.80 -3.20 -49.40 -3.40 -6.60 -6.60 -10 -13 -13 -8.20 -4 -11.60 -4.20 -111.60 -4.20 l-103 0 -2.20 -16.20 c-2.80 -22.60 -6.40 -26.20 -27.80 -27.40 -22.20 -1.20 -37 2.20 -43.80 10.20 -5 5.80 -5.20 7.20 -4.20 19.60 l1.20 13.40 -14.80 0.80 c-16.20 0.80 -21.40 3.80 -26.20 15 -3.60 8.40 -3.60 34.80 0 43.40 4.80 11.40 12.40 15.20 31 15.20 l16.20 0 0 5.60 c0.20 20.20 18 218.40 20 222.60 5.20 11.40 23.80 16 47 11.60z m71.40 -172.60 c5.80 -2.80 17.20 -7.40 25.20 -10.40 8 -3 15 -6.20 15.60 -7.20 0.60 -0.80 -11.20 -1.60 -26 -1.60 l-27.20 0 0 12 c0 6.60 0.40 12 1 12 0.40 0 5.60 -2.20 11.40 -4.80z"/>
  <path d="M1367.80 621.40 c-14.80 -4.20 -25.80 -12 -44 -30.80 -28.20 -29.20 -29 -36.60 -12.20 -100.60 25.20 -95.20 40.40 -186.60 45.40 -272 1.60 -28.80 3 -36 8.20 -46.20 10.60 -21 31.40 -30 66.60 -29 11.60 0.40 24.40 1.80 28.20 3.40 13 4.80 27.20 15.40 42.40 31.60 21.20 22.40 22.60 27.40 20.80 74.60 -0.80 19.40 -1.80 38.80 -2.20 43 -0.40 4.20 -1.20 13.40 -1.80 20.60 -5.20 59.60 -18.60 133.80 -38.40 212.80 -12.20 48.60 -17.80 63.60 -27.60 74.60 -14 15.60 -23.60 19.40 -52.20 20 -15.20 0.40 -27.40 -0.40 -33.20 -2z m31.60 -47.60 c15.40 -5.80 18.60 -13 36.60 -83.80 24.20 -95.20 37 -180 39.20 -260 1 -39 1 -41.40 -3 -47.40 -6.60 -10.40 -18.20 -15.20 -39.80 -16.20 -22 -1 -34.40 1.80 -42.40 10 -6.80 6.80 -6.80 6.80 -11 58.20 -7 89 -24.20 188.60 -47 271.80 -9.60 35.20 -10.20 46.60 -2.80 55.60 6.60 7.80 13.80 11.60 27.20 13.80 12.20 2.20 34.80 1.20 43 -2z"/>
  <path d="M1695 622.80 c-15.20 -3.80 -19.20 -6.60 -38.40 -25.40 -14 -13.60 -21.60 -22.80 -24.40 -29.20 -2.80 -6.60 -5.60 -23.20 -9.20 -53.40 -5.20 -43.80 -6.60 -55.40 -8 -64.80 -0.40 -2.80 -1.40 -9 -2 -14 -4.40 -32.60 -17.20 -103.40 -24.20 -134.80 -4 -17.60 -12 -48.80 -17.80 -69.20 -13.80 -48.80 -13.40 -46.60 -10.80 -57.20 3.20 -12.80 14.20 -23.60 28 -27.60 14.80 -4.40 37 -4.20 46.20 0.60 l7.40 3.60 7.60 -7.80 c4.20 -4.20 13.40 -10.60 20.60 -14.20 11.80 -5.80 14.60 -6.40 32 -6.40 27.20 0.20 36.20 4.80 64.40 32.60 29 28.40 34.40 39 34.60 66.40 0 16.40 -0.80 20.60 -5.40 30.40 -6.80 14.80 -21 29.80 -34.60 37 -6.60 3.20 -10.60 6.60 -10 8 0.40 1.40 4.20 17.60 8 36 16.60 76.40 36.20 213.20 34.60 239.80 -1.40 22.80 -11.60 36.20 -34.60 46 -6 2.60 -14.80 3.60 -34 4 -14.20 0.40 -27.80 0.20 -30 -0.40z m29.20 -48.80 c4.80 -1.40 11.40 -5.20 15.20 -9 6.40 -6.40 6.60 -7.20 6.60 -21.80 0 -47.40 -35.40 -255.40 -45 -265 -1.60 -1.60 -7.60 -4.20 -13.40 -5.60 -26.60 -6.80 -45.40 -21.20 -55.20 -42.20 -5 -10.40 -5.40 -13.60 -5.40 -36.20 l0 -24.80 -5.60 -2 c-9.80 -3.20 -27.20 0.20 -33.80 6.60 -3 3.20 -5.60 7.40 -5.60 9.40 0 2 4.80 20.20 10.80 40.60 9.60 33 25 97.20 28 116 0.60 3.80 1.60 9.20 2.20 12 4.80 22 14.60 83.80 18 113 0.60 5.60 1.60 11.40 2 13 0.40 1.60 1.20 8.80 2 16 0.60 7.20 1.40 16.20 2 20 0.40 3.80 1.80 14.80 2.80 24.60 1.20 9.60 3.20 20 4.60 22.80 3.40 7 13.60 13 24.20 14 4.60 0.60 8.60 1.20 8.80 1.40 1.40 1.20 30 -1 36.80 -2.80z m-4.20 -327 c29.20 -10.20 42.80 -44.60 28.80 -72.60 -15.40 -30.80 -55.20 -38.40 -82.20 -15.60 -22.40 19 -22 60.20 1 79.20 13.80 11.40 35.20 15 52.40 9z"/>
  <path d="M1693 215.60 c-9.80 -5.40 -14 -18.20 -9 -27.80 2.60 -4.80 12.20 -9.80 19.20 -9.80 7.60 0 18.80 11.80 18.80 20 0 4.60 -1.80 8.40 -6.80 13.20 -7.20 7.20 -14.60 8.60 -22.20 4.40z"/>
  <path d="M245.80 619.40 c-10.40 -4 -16.80 -9 -34.20 -27 -11 -11.20 -17.60 -20 -22 -29.60 -6 -12.80 -6.60 -15.40 -6.60 -33.80 0 -17.80 0.60 -21.40 5.60 -32 6.40 -13.80 17 -25.40 28.40 -31.60 7.60 -4.20 11.40 -4.40 83 -5.60 82.40 -1.40 92.40 -2.60 120.80 -15.60 54.60 -24.60 78.80 -70.80 83 -157.20 1.20 -25.80 2.20 -31.60 5.80 -37.60 2.80 -4.80 3.40 -7.80 2 -8.60 -1 -0.80 -3.80 -5 -5.80 -9.60 -3.20 -7 -3.80 -13.40 -3.80 -45.20 0 -20.40 1 -40.20 2 -44 2.40 -8.60 12.20 -18.60 22.40 -22.80 10.80 -4.60 34.40 -4.20 45 0.80 8.40 3.80 8.80 3.80 17 0 10 -4.60 31.60 -5.40 44.40 -1.60 12.20 3.60 44 35.40 47.20 47.20 1.40 5.60 2 23.20 1.60 48.40 -0.60 44.40 -1.20 45.80 -16.20 55.80 l-7.20 4.80 3.40 6.20 c2.80 5.20 3.40 11.20 3 35.80 -0.80 64.40 -12.40 119 -35 164.20 -37.40 75.20 -101.20 118.60 -198.60 135.60 -20.80 3.60 -34.40 4.20 -101 4.80 -61.20 0.60 -78.40 0.40 -84.20 -1.80z m164 -51.20 c112.20 -20.80 178.60 -86.20 200 -196.60 5.20 -26.60 8.80 -68.60 8 -90.60 -0.80 -17 -1 -17.40 -8.20 -24 -17 -15.80 -58 -17.40 -74.20 -3 l-6.20 5.40 -1.60 28.80 c-4.20 77.60 -23 124.40 -62.40 156.20 -20.40 16.40 -54 31 -79.20 34.40 -5 0.60 -11.20 1.80 -14 2.40 -2.80 0.80 -36 1.80 -74 2.60 -67.60 1.20 -69.20 1.20 -75.40 5.80 -9.60 6.80 -16.80 23.20 -16.80 38.20 -0.20 19.80 6.40 34.60 19 42.40 6 3.80 9.40 4 84.20 3.20 68.60 -0.80 80.80 -1.40 100.80 -5.20z m156.80 -350.40 c3 -3.60 3.40 -8.80 3.40 -36.60 0 -23.20 -0.80 -33.40 -2.60 -36 -5.20 -7.20 -26.60 -8.40 -36.80 -2 -4.40 2.80 -4.60 3.80 -4.60 37.60 0 37 0.60 39 11 41.80 8.60 2.40 25.80 -0.60 29.60 -4.80z m57.80 4.20 c10.40 -3 12 -9.80 11.20 -45.20 -0.40 -23.80 -1.20 -29 -4.20 -32.40 -6.80 -7.60 -33.20 -7 -38.80 0.80 -3.60 5 -3.60 66.60 0 71.40 4.60 6.40 19 8.80 31.80 5.40z"/>
  <path d="M1918.80 617 c-14.40 -7 -43.60 -36 -50 -49.80 -17 -37.40 -5.80 -83.60 24.20 -99.80 7.60 -4.20 11.20 -4.40 82 -5.60 76.80 -1.20 91.60 -2.80 117.40 -11.60 29.20 -10 54 -29 67.40 -51.20 18.60 -30.60 24.20 -62.60 24.20 -135.60 0 -29.40 1 -55.60 2.20 -61.40 7.60 -35.40 56 -53.80 99.20 -37.80 8.80 3.40 15 8.20 30.60 23.60 10.60 10.60 21 22.80 23.20 27.20 3.40 7.20 3.80 13.80 4.40 70 0.80 67.20 -0.80 88.20 -8.80 124.80 -14.80 66.40 -47.20 119 -96 155.80 -16 12.20 -55.20 32 -76.80 39.20 -41.40 13.60 -77 17.40 -164 17.20 -68.60 -0.20 -69.40 -0.20 -79.20 -5z m168.60 -47.80 c27.60 -4.80 51.20 -12.20 74 -23.20 48.20 -23 80.80 -54.60 104.40 -101.80 23.40 -46.20 32.20 -98 32 -186.20 0 -46.80 -1.20 -55.60 -9.20 -64.40 -12.80 -14.60 -55.80 -16 -71 -2.20 -8.80 7.80 -9.80 14.40 -9.60 60.40 0.20 90 -8.40 132 -35 169.40 -22.20 31 -63 52.80 -112 60 -4.40 0.60 -10.20 1.60 -13 2.20 -2.80 0.60 -35.60 1.40 -73 2 -77.60 1.20 -76.80 1 -85.40 18.20 -6.60 13.40 -6.60 41.40 0 53.80 8 15.40 8.20 15.40 70.40 16.60 63.40 1.20 101.20 -0.20 127.40 -4.80z"/>
  <path d="M249.80 423.20 c-12.60 -4.40 -20.40 -10.40 -35.40 -27 -19 -21 -22.80 -29.80 -24 -55.20 -0.60 -17.20 -0.20 -21.60 3.80 -32 4.20 -11.60 16.80 -27 23.80 -29.40 2.20 -0.80 0.20 -4 -7.60 -12.40 -16.60 -17.40 -19.40 -25.60 -19.40 -54.20 0 -27.20 3 -36.60 15.20 -48.80 14.20 -14.20 13 -14.20 107.80 -14.20 100.40 0 93.20 -1.40 120.60 25.60 24.60 24.40 28.40 32.60 28.40 61.40 0 19.60 -0.60 23.20 -5.40 33 -5 10.80 -19.20 26 -24 26 -1.40 0 1.60 4.20 6.60 9.60 19.20 19.80 24.80 35.20 23.40 62.20 -1.60 26.40 -11.60 43.80 -30.80 53.40 -7.20 3.60 -13.20 3.80 -91.80 4.20 -65.40 0.40 -85.60 0 -91.20 -2.20z m152.40 -49.80 c9.80 -6.60 14.20 -16.80 14.40 -34 0 -17.60 -2.80 -27 -10.80 -34.60 l-6 -5.80 -84.20 -0.60 -84 -0.60 -6.80 5.20 c-12.80 9.80 -16.80 42.20 -7.40 60.20 7.60 14.80 7.60 14.80 97.80 14.80 80 0 80.20 0 87 -4.60z m-2.80 -123.20 c12 -5.60 17.20 -16.40 17 -36.20 0 -18 -4 -29.40 -13 -36.20 l-6.40 -4.80 -81 0 c-77.80 0 -81.20 0.20 -88 4 -9.80 5.80 -14.40 15 -15.60 30.60 -1 15.40 1.80 27.40 8 35.40 8.40 10.60 10.20 10.80 93.60 10.80 71.40 0.20 77.60 -0.20 85.40 -3.60z"/>
  <path d="M2078 334 c-26.20 -7.80 -75.80 -18 -111 -23 -19.80 -2.80 -40 -6.60 -45 -8.40 -6.40 -2.20 -14.80 -9 -29.40 -23.20 -25.60 -25 -27.40 -29.60 -26.20 -62.40 0.80 -21.40 1.20 -23.60 8.40 -38 14.40 -29.20 32.80 -35.20 86.40 -28 69.40 9.20 115 19.40 142.40 32 19.20 9 47.80 36 54.60 51.80 8.60 20 6.60 50 -5 72.80 -5.60 11 -18.40 23.40 -28.40 27.60 -9.20 3.80 -31.20 3.20 -46.80 -1.20z m16 -46.40 c7.40 -3.80 10.20 -6.80 15 -16.60 5.40 -10.80 6 -14 6 -30.40 0 -27.60 -4.80 -32.60 -42 -43.20 -71.60 -20.60 -150.60 -31.60 -166 -23 -15.60 8.40 -23.80 52.20 -13.60 72.20 4 8 15.80 12.60 39.60 15.20 35.60 4.20 66.40 10.20 105.60 20.20 21.20 5.40 40.20 9.80 42.40 9.80 2.40 0.20 8.20 -1.80 13 -4.20z"/>
 </g>
</svg>